<?xml version="1.0" encoding="UTF-8" standalone="no"?>
<!-- Created with Inkscape (http://www.inkscape.org/) -->

<svg
   width="186.00208mm"
   height="186.00211mm"
   viewBox="0 0 186.00208 186.00211"
   version="1.1"
   id="svg1"
   xml:space="preserve"
   xmlns:inkscape="http://www.inkscape.org/namespaces/inkscape"
   xmlns:sodipodi="http://sodipodi.sourceforge.net/DTD/sodipodi-0.dtd"
   xmlns="http://www.w3.org/2000/svg"
   xmlns:svg="http://www.w3.org/2000/svg"><sodipodi:namedview
     id="namedview1"
     pagecolor="#ffffff"
     bordercolor="#999999"
     borderopacity="1"
     inkscape:showpageshadow="2"
     inkscape:pageopacity="0"
     inkscape:pagecheckerboard="0"
     inkscape:deskcolor="#d1d1d1"
     inkscape:document-units="mm"><inkscape:page
       x="9.3997589e-19"
       y="-3.8047905e-21"
       width="186.00208"
       height="186.00211"
       id="page2"
       margin="0"
       bleed="0" /></sodipodi:namedview><defs
     id="defs1" /><g
     inkscape:label="Layer 1"
     inkscape:groupmode="layer"
     id="layer1"
     transform="translate(-884.57086,313.73826)"><g
       id="g2"><rect
         style="fill:none;stroke:none;stroke-width:4.42006"
         id="rect2"
         width="186.00209"
         height="186.00209"
         x="884.57092"
         y="-313.73828" /><path
         style="fill:#000000"
         d="m 884.57092,-142.89012 c 0,-0.20975 0.62508,-0.71159 1.38907,-1.11521 10.32873,-5.45676 18.2628,-8.42525 32.12111,-12.01797 13.23955,-3.4323 19.37841,-6.20578 23.43565,-10.58797 3.52692,-3.80939 4.83666,-7.85911 5.2106,-16.11121 l 0.23167,-5.11233 -2.15603,-3.22204 c -3.46803,-5.18277 -5.38732,-8.9512 -6.93505,-13.61669 -0.97178,-2.92933 -0.97282,-2.931 -1.9331,-3.09505 -1.61517,-0.27592 -3.25553,-1.69523 -4.32258,-3.74009 -2.94862,-5.65061 -5.71369,-19.47254 -4.96006,-24.79412 0.59381,-4.19307 2.71171,-6.79173 5.53523,-6.79173 0.95599,0 0.9328,0.28687 0.38492,-4.7625 -1.5191,-14.00024 0.72517,-25.79743 6.56461,-34.50744 1.346,-2.00767 3.1594,-4.17091 4.66538,-5.56542 0.63546,-0.58841 1.52843,-1.41331 1.98438,-1.83309 1.18649,-1.09236 5.53352,-3.89584 7.84861,-5.0617 2.466,-1.24186 8.01472,-3.07743 11.50122,-3.80472 7.27654,-1.5179 17.06513,-1.5179 24.34167,0 3.4865,0.72729 9.03521,2.56286 11.50118,3.80472 2.3151,1.16586 6.6622,3.96934 7.8487,5.0617 0.4559,0.41978 1.3489,1.24468 1.9843,1.83309 2.0911,1.93629 4.688,5.2942 6.2629,8.09824 0.8345,1.4857 2.4309,5.23123 3.0842,7.23608 2.1921,6.7275 2.8703,15.63859 1.8829,24.73854 -0.5479,5.04937 -0.571,4.7625 0.3849,4.7625 2.8236,0 4.9415,2.59866 5.5353,6.79173 0.7536,5.32158 -2.0115,19.14351 -4.9601,24.79412 -1.067,2.04486 -2.7074,3.46417 -4.3226,3.74009 -0.9603,0.16405 -0.9613,0.16572 -1.9331,3.09505 -1.5477,4.66549 -3.467,8.43392 -6.935,13.61669 l -2.1561,3.22204 0.2317,5.11233 c 0.374,8.2521 1.6837,12.30182 5.2106,16.11121 4.0573,4.38219 10.1961,7.15567 23.4357,10.58797 12.335,3.19782 19.5129,5.75604 28.857,10.2847 2.3409,1.13457 4.4646,2.13317 4.7193,2.21912 0.2547,0.0859 0.463,0.33331 0.463,0.54971 0,0.53353 -1.018,0.1535 -5.2917,-1.97535 -1.819,-0.90612 -4.2002,-2.05721 -5.2916,-2.55799 -1.9889,-0.91257 -10.9386,-4.31017 -11.3535,-4.31017 -0.1215,0 -1.5159,-0.42472 -3.0988,-0.94383 -1.5829,-0.51911 -5.1936,-1.53939 -8.0238,-2.2673 -13.7473,-3.53565 -20.0674,-6.25042 -24.2412,-10.41274 -4.1151,-4.10377 -5.8581,-8.86402 -6.1308,-16.74346 -0.077,-2.22271 -0.2308,-4.0975 -0.3419,-4.1662 -0.1112,-0.0687 -1.8513,1.51176 -3.867,3.51213 -5.17887,5.1395 -9.74915,8.21608 -15.26178,10.2738 -3.04477,1.13653 -8.11882,2.22677 -10.36354,2.22677 -2.24471,0 -7.31876,-1.09024 -10.36353,-2.22677 -5.51263,-2.05772 -10.08291,-5.1343 -15.26177,-10.2738 -2.01568,-2.00037 -3.75583,-3.58083 -3.86699,-3.51213 -0.11116,0.0687 -0.26504,1.94349 -0.34197,4.1662 -0.27269,7.87944 -2.0157,12.63969 -6.13077,16.74346 -4.17379,4.16232 -10.49384,6.87709 -24.24116,10.41274 -2.83024,0.72791 -6.44096,1.74819 -8.02382,2.2673 -1.58286,0.51911 -2.97732,0.94383 -3.09879,0.94383 -0.12148,0 -2.29302,0.76798 -4.82565,1.70661 -4.4603,1.65307 -9.29041,3.81662 -13.93617,6.24244 -1.23693,0.64587 -2.33826,1.21507 -2.4474,1.26489 -0.10914,0.0498 -0.19844,-0.081 -0.19844,-0.29078 z m 96.66269,-28.64323 c 4.75793,-0.8426 11.10547,-3.51757 14.85919,-6.26195 3.85331,-2.8172 7.8408,-6.5883 10.1865,-9.63373 0.2182,-0.2834 0.8233,-1.04759 1.3444,-1.6982 3.0858,-3.85203 6.7394,-10.65207 8.3909,-15.61662 0.5592,-1.68113 1.095,-3.18311 1.1905,-3.33773 0.096,-0.15462 0.6473,-0.34465 1.2262,-0.42228 3.1965,-0.42875 5.2202,-4.36455 7.5144,-14.61463 1.0692,-4.77694 1.3216,-6.73628 1.3291,-10.31875 0.01,-3.34512 -0.057,-3.87086 -0.6622,-5.42396 -0.9143,-2.34712 -2.2899,-3.43958 -4.331,-3.43958 -0.7805,0 -1.474,-0.0893 -1.5412,-0.19844 -0.067,-0.10914 0.068,-1.27 0.3007,-2.57968 0.3235,-1.82143 0.4263,-4.27843 0.4373,-10.45105 0.015,-8.29192 -0.041,-8.93624 -1.2196,-14.02291 -3.2614,-14.07908 -13.4378,-23.97786 -28.66391,-27.88212 -4.51015,-1.15648 -8.35007,-1.58154 -14.28751,-1.58154 -5.93743,0 -9.77736,0.42506 -14.2875,1.58154 -15.22613,3.90426 -25.40248,13.80304 -28.66393,27.88212 -1.17834,5.08667 -1.23438,5.73099 -1.21961,14.02291 0.011,6.17262 0.1138,8.62962 0.4373,10.45105 0.23262,1.30968 0.36795,2.47054 0.30074,2.57968 -0.0672,0.10914 -0.76075,0.19844 -1.54121,0.19844 -2.04108,0 -3.41668,1.09246 -4.33104,3.43958 -0.60503,1.5531 -0.66921,2.07884 -0.66219,5.42396 0.008,3.58247 0.2599,5.54181 1.3291,10.31875 2.29423,10.25008 4.31793,14.18588 7.51447,14.61463 0.57882,0.0776 1.13058,0.26766 1.22614,0.42228 0.0956,0.15462 0.6313,1.6566 1.19052,3.33773 1.65145,4.96455 5.30514,11.76459 8.39086,15.61662 0.52118,0.65061 1.1262,1.4148 1.34448,1.6982 2.34567,3.04543 6.33315,6.81653 10.18646,9.63373 4.42589,3.23581 11.59798,6.0193 17.066,6.62331 2.18186,0.24102 2.27939,0.23477 5.64564,-0.36136 z m -7.22585,-16.51751 c -0.21407,-0.13538 -0.3085,-0.32686 -0.20985,-0.42551 0.24212,-0.24212 0.99593,0.0658 0.99593,0.40687 0,0.33605 -0.27392,0.34255 -0.78608,0.0186 z m 2.77046,-0.0103 c 0.0899,-0.14552 0.39462,-0.26459 0.67707,-0.26459 0.28245,0 0.51355,0.11907 0.51355,0.26459 0,0.14552 -0.30468,0.26458 -0.67707,0.26458 -0.38401,0 -0.60629,-0.11452 -0.51355,-0.26458 z m 3.04271,-0.008 c 0,-0.34103 0.75381,-0.64899 0.99593,-0.40687 0.0987,0.0986 0.004,0.29013 -0.20985,0.42551 -0.51216,0.32391 -0.78608,0.31741 -0.78608,-0.0186 z m -9.12813,-0.78544 c -0.0899,-0.14552 0.0746,-0.26459 0.36565,-0.26459 0.29104,0 0.60275,0.11907 0.69268,0.26459 0.0899,0.14552 -0.0746,0.26458 -0.36564,0.26458 -0.29104,0 -0.60275,-0.11906 -0.69269,-0.26458 z m 12.17083,0 c 0.0899,-0.14552 0.40165,-0.26459 0.69269,-0.26459 0.29104,0 0.45559,0.11907 0.36565,0.26459 -0.0899,0.14552 -0.40165,0.26458 -0.69269,0.26458 -0.29104,0 -0.45558,-0.11906 -0.36565,-0.26458 z m -14.83224,-0.91763 c -0.28247,-0.21365 -0.3745,-0.39225 -0.2045,-0.39688 0.50265,-0.0137 1.14612,0.29458 1.14612,0.54906 0,0.34676 -0.35859,0.2888 -0.94162,-0.15218 z m 17.61037,0.15218 c 0,-0.25448 0.64347,-0.56274 1.14612,-0.54906 0.17,0.005 0.078,0.18323 -0.2045,0.39688 -0.58304,0.44098 -0.94162,0.49894 -0.94162,0.15218 z m -20.2515,-1.36882 c -0.31026,-0.50201 0.14224,-0.62589 0.60304,-0.16509 0.41247,0.41247 0.41319,0.44727 0.009,0.44727 -0.24087,0 -0.51643,-0.12698 -0.61235,-0.28218 z m 23.23121,-0.16509 c 0.246,-0.246 0.52156,-0.37298 0.61236,-0.28218 0.2604,0.26039 -0.13935,0.72945 -0.62167,0.72945 -0.40388,0 -0.40316,-0.0348 0.009,-0.44727 z m -25.87705,-1.42241 c -0.31026,-0.50201 0.14225,-0.62589 0.60304,-0.16509 0.41247,0.41247 0.4132,0.44727 0.009,0.44727 -0.24088,0 -0.51644,-0.12698 -0.61236,-0.28218 z m 28.52289,-0.16509 c 0.246,-0.246 0.52156,-0.37298 0.61235,-0.28218 0.2604,0.26039 -0.13935,0.72945 -0.62167,0.72945 -0.40388,0 -0.40315,-0.0348 0.009,-0.44727 z m -30.89891,-1.67563 c -0.39845,-0.44029 -0.40916,-0.52293 -0.0677,-0.52293 0.50799,0 1.11293,0.69238 0.78307,0.89625 -0.13314,0.0823 -0.45503,-0.0857 -0.71532,-0.37332 z m 33.10775,0.31803 c -0.19345,-0.31301 0.50882,-0.92621 0.90827,-0.79306 0.17367,0.0579 0.0799,0.2915 -0.22943,0.57142 -0.29312,0.26527 -0.59164,0.36274 -0.67884,0.22164 z m -35.35636,-2.30256 c -0.18408,-0.2218 -0.26107,-0.47689 -0.17109,-0.56687 0.19217,-0.19217 0.97014,0.39961 0.97014,0.73795 0,0.36445 -0.43123,0.27212 -0.79905,-0.17108 z m 37.57614,0.17108 c 0,-0.33834 0.77797,-0.93012 0.97014,-0.73795 0.19216,0.19216 -0.39962,0.97014 -0.73796,0.97014 -0.1277,0 -0.23218,-0.10449 -0.23218,-0.23219 z m -39.35678,-2.07504 c -0.39721,-0.14186 -0.44559,-0.86777 -0.0578,-0.86777 0.27293,0 0.67392,0.74146 0.48741,0.90123 -0.0544,0.0466 -0.24766,0.0315 -0.42957,-0.0335 z m 41.52037,-0.25146 c 0.047,-0.2421 0.23419,-0.48973 0.41609,-0.55029 0.48648,-0.16198 0.40376,0.64309 -0.0854,0.83078 -0.29017,0.11135 -0.39026,0.0265 -0.33073,-0.28049 z m -43.70848,-2.3425 c -0.18408,-0.2218 -0.26107,-0.47689 -0.17109,-0.56687 0.19217,-0.19216 0.97014,0.39962 0.97014,0.73795 0,0.36445 -0.43123,0.27212 -0.79905,-0.17108 z m 45.51364,0.17108 c 0,-0.33833 0.77802,-0.93011 0.97012,-0.73795 0.1922,0.19216 -0.3996,0.97014 -0.73794,0.97014 -0.1277,0 -0.23218,-0.10448 -0.23218,-0.23219 z m -47.07707,-2.52332 c -0.19732,-0.23775 -0.28028,-0.51076 -0.18435,-0.60668 0.2471,-0.2471 0.77565,0.34135 0.6487,0.72222 -0.073,0.21892 -0.21638,0.18324 -0.46435,-0.11554 z m 48.92919,0.0497 c 0,-0.48232 0.469,-0.88208 0.7294,-0.62168 0.091,0.0908 -0.036,0.36636 -0.2822,0.61236 -0.4124,0.41247 -0.4472,0.4132 -0.4472,0.009 z m -50.52333,-2.82778 c -0.20478,-0.38264 -0.20881,-0.55183 -0.0131,-0.55183 0.32075,0 0.67009,0.74203 0.452,0.96012 -0.0789,0.0789 -0.27644,-0.10478 -0.43887,-0.40829 z m 52.11923,0.19139 c 0,-0.24607 0.1185,-0.52588 0.2737,-0.6218 0.4664,-0.28822 0.5318,0.0156 0.1204,0.55936 -0.3386,0.44764 -0.3867,0.45526 -0.3941,0.0624 z m -53.56449,-2.76546 c -0.0918,-0.23911 -0.11241,-0.48916 -0.0459,-0.55566 0.21028,-0.21028 0.68529,0.21196 0.68529,0.60914 0,0.51899 -0.43362,0.48272 -0.63938,-0.0535 z m 54.87899,0.0535 c 0,-0.39718 0.475,-0.81942 0.6853,-0.60914 0.1845,0.18454 -0.1808,0.9904 -0.449,0.9904 -0.13,0 -0.2363,-0.17156 -0.2363,-0.38126 z m -55.91089,-2.43655 c -0.26394,-0.26394 -0.22118,-1.15094 0.0555,-1.15094 0.34566,0 0.61269,0.84438 0.35008,1.10699 -0.12362,0.12361 -0.30611,0.14339 -0.40555,0.044 z m 57.11889,-0.0644 c -0.1933,-0.31281 0.097,-1.08653 0.4078,-1.08653 0.3131,0 0.3047,0.98478 -0.01,1.17933 -0.1355,0.0837 -0.3145,0.042 -0.3978,-0.0928 z m -58.07467,-3.04828 c -0.19732,-0.23776 -0.28028,-0.51077 -0.18436,-0.60669 0.24711,-0.2471 0.77566,0.34136 0.6487,0.72222 -0.073,0.21892 -0.21638,0.18324 -0.46434,-0.11553 z m 58.98327,0.0497 c 0,-0.48232 0.4691,-0.88207 0.7295,-0.62167 0.091,0.0908 -0.036,0.36635 -0.2822,0.61235 -0.4125,0.41247 -0.4473,0.4132 -0.4473,0.009 z m -61.59496,-1.31585 c -0.49942,-0.49943 -0.3711,-0.78814 0.21167,-0.47625 0.29104,0.15576 0.52917,0.39807 0.52917,0.53847 0,0.35041 -0.3583,0.32032 -0.74084,-0.0622 z m 63.97626,0.0622 c 0,-0.1404 0.2381,-0.38271 0.5292,-0.53847 0.5827,-0.31189 0.7111,-0.0232 0.2116,0.47625 -0.3825,0.38254 -0.7408,0.41263 -0.7408,0.0622 z m -65.41824,-2.27863 c -0.10914,-0.11007 -0.19843,-0.44222 -0.19843,-0.73811 0,-0.38941 0.0799,-0.45806 0.28939,-0.24859 0.15917,0.15917 0.24847,0.49132 0.19844,0.73811 -0.05,0.2468 -0.18026,0.35866 -0.2894,0.24859 z m 67.27034,-0.34528 c 0,-0.29104 0.119,-0.60275 0.2646,-0.69269 0.1455,-0.0899 0.2645,0.0746 0.2645,0.36565 0,0.29104 -0.119,0.60275 -0.2645,0.69268 -0.1456,0.0899 -0.2646,-0.0746 -0.2646,-0.36564 z m -68.35791,-2.59606 c -0.25215,-0.25215 -0.20441,-0.87475 0.0671,-0.87475 0.32459,0 0.58516,0.7454 0.31824,0.91037 -0.11887,0.0735 -0.29226,0.0574 -0.38532,-0.0356 z m 69.33911,0.0182 c -0.2065,-0.20648 0.078,-0.89298 0.37,-0.89298 0.3023,0 0.3091,0.71748 0.01,0.90323 -0.1252,0.0774 -0.2956,0.0728 -0.3786,-0.0102 z m -70.19378,-3.10911 c -0.22416,-0.58415 0.0741,-0.88237 0.47821,-0.47821 0.23863,0.23862 0.23965,0.38653 0.004,0.62191 -0.23538,0.23538 -0.35013,0.20121 -0.48248,-0.1437 z m 70.93498,0.10377 c -0.1951,-0.31574 0.053,-0.79806 0.4099,-0.79806 0.3219,0 0.324,0.71613 0,0.91474 -0.1354,0.0837 -0.3211,0.0312 -0.4125,-0.11668 z m -71.43187,-2.99228 c -0.11326,-0.26094 -0.13169,-0.54868 -0.0409,-0.63941 0.26868,-0.26869 0.48527,0.10873 0.3616,0.63011 -0.10963,0.46221 -0.12389,0.46262 -0.32065,0.009 z m 72.09067,-0.17142 c 0,-0.29963 0.1191,-0.54478 0.2646,-0.54478 0.1455,0 0.2646,0.17157 0.2646,0.38126 0,0.2097 -0.1191,0.45485 -0.2646,0.54478 -0.1455,0.0899 -0.2646,-0.0816 -0.2646,-0.38126 z m -72.76039,-3.07393 c 0,-0.38401 0.11452,-0.6063 0.26458,-0.51356 0.14552,0.0899 0.26459,0.39462 0.26459,0.67708 0,0.28245 -0.11907,0.51355 -0.26459,0.51355 -0.14552,0 -0.26458,-0.30468 -0.26458,-0.67707 z m 73.28959,0.16352 c 0,-0.28246 0.1191,-0.58714 0.2646,-0.67708 0.15,-0.0927 0.2646,0.12955 0.2646,0.51356 0,0.37239 -0.1191,0.67707 -0.2646,0.67707 -0.1455,0 -0.2646,-0.2311 -0.2646,-0.51355 z m -73.55418,-3.19062 c 0,-0.29104 0.11907,-0.52916 0.26459,-0.52916 0.14552,0 0.26458,0.23812 0.26458,0.52916 0,0.29104 -0.11906,0.52917 -0.26458,0.52917 -0.14552,0 -0.26459,-0.23813 -0.26459,-0.52917 z m 73.81878,0 c 0,-0.29104 0.119,-0.52916 0.2646,-0.52916 0.1455,0 0.2645,0.23812 0.2645,0.52916 0,0.29104 -0.119,0.52917 -0.2645,0.52917 -0.1456,0 -0.2646,-0.23813 -0.2646,-0.52917 z m -73.36783,-2.55834 c -0.18953,-0.30667 0.25215,-1.0601 0.48496,-0.82728 0.094,0.094 0.0574,0.37375 -0.0813,0.62163 -0.13872,0.24788 -0.32037,0.34042 -0.40367,0.20565 z m 72.99863,-0.24294 c -0.2128,-0.55464 -0.2028,-0.6383 0.076,-0.6383 0.3307,0 0.5827,0.7469 0.309,0.91605 -0.1239,0.0766 -0.2973,-0.0484 -0.3853,-0.27775 z m -71.59749,-2.58506 c 0,-0.44661 0.71125,-0.78203 0.92498,-0.43621 0.0815,0.13186 -0.0933,0.36898 -0.3884,0.52692 -0.42263,0.22618 -0.53658,0.20692 -0.53658,-0.0907 z m 70.00529,0.0119 c -0.275,-0.20111 -0.387,-0.4355 -0.2489,-0.52087 0.349,-0.21569 0.9738,0.21202 0.8504,0.58217 -0.073,0.21781 -0.2436,0.20038 -0.6015,-0.0613 z m -67.16484,-0.60458 c -0.21196,-0.21196 0.0654,-0.90018 0.36286,-0.90018 0.12995,0 0.23627,0.23813 0.23627,0.52917 0,0.51572 -0.28063,0.68951 -0.59913,0.37101 z m 64.36374,-0.37101 c 0,-0.29104 0.1063,-0.52917 0.2363,-0.52917 0.2974,0 0.5748,0.68822 0.3628,0.90018 -0.3185,0.3185 -0.5991,0.14471 -0.5991,-0.37101 z m -64.55836,-3.05832 c 0,-0.38401 0.11452,-0.6063 0.26459,-0.51355 0.14552,0.0899 0.26458,0.39462 0.26458,0.67707 0,0.28245 -0.11906,0.51355 -0.26458,0.51355 -0.14553,0 -0.26459,-0.30468 -0.26459,-0.67707 z m 64.82296,0.16352 c 0,-0.28245 0.119,-0.58714 0.2645,-0.67707 0.1501,-0.0927 0.2646,0.12954 0.2646,0.51355 0,0.37239 -0.119,0.67707 -0.2646,0.67707 -0.1455,0 -0.2645,-0.2311 -0.2645,-0.51355 z m -65.08754,-3.20623 c 0,-0.29963 0.11906,-0.4712 0.26458,-0.38126 0.14552,0.0899 0.26459,0.33509 0.26459,0.54478 0,0.20969 -0.11907,0.38126 -0.26459,0.38126 -0.14552,0 -0.26458,-0.24515 -0.26458,-0.54478 z m 65.35204,0.16352 c 0,-0.20969 0.1191,-0.45484 0.2646,-0.54478 0.1455,-0.0899 0.2646,0.0816 0.2646,0.38126 0,0.29963 -0.1191,0.54478 -0.2646,0.54478 -0.1455,0 -0.2646,-0.17157 -0.2646,-0.38126 z m -65.61662,-3.30729 c 0,-0.28245 0.11906,-0.58714 0.26458,-0.67707 0.15006,-0.0927 0.26458,0.12954 0.26458,0.51355 0,0.37239 -0.11906,0.67707 -0.26458,0.67707 -0.14552,0 -0.26458,-0.2311 -0.26458,-0.51355 z m 65.88122,-0.16352 c 0,-0.38401 0.1146,-0.6063 0.2646,-0.51355 0.1455,0.0899 0.2646,0.39462 0.2646,0.67707 0,0.28245 -0.1191,0.51355 -0.2646,0.51355 -0.1455,0 -0.2646,-0.30468 -0.2646,-0.67707 z m -65.61664,-2.87919 c 0,-0.37239 0.11906,-0.67707 0.26458,-0.67707 0.14552,0 0.26459,0.2311 0.26459,0.51355 0,0.28245 -0.11907,0.58714 -0.26459,0.67707 -0.15006,0.0927 -0.26458,-0.12954 -0.26458,-0.51355 z m 65.52844,0.46946 c -0.2744,-0.27448 -0.2074,-1.14653 0.088,-1.14653 0.1455,0 0.2646,0.29765 0.2646,0.66146 0,0.69269 -0.061,0.77673 -0.3528,0.48507 z m -65.26386,-3.64446 c 0,-0.37239 0.11906,-0.67707 0.26459,-0.67707 0.14552,0 0.26458,0.2311 0.26458,0.51355 0,0.28245 -0.11906,0.58714 -0.26458,0.67707 -0.15007,0.0927 -0.26459,-0.12954 -0.26459,-0.51355 z m 64.99926,0.46946 c -0.2744,-0.27448 -0.2073,-1.14653 0.088,-1.14653 0.1456,0 0.2646,0.29765 0.2646,0.66146 0,0.69269 -0.061,0.77673 -0.3528,0.48507 z m -64.47009,-3.51217 c 0,-0.28245 0.11906,-0.58713 0.26458,-0.67707 0.15006,-0.0927 0.26459,0.12954 0.26459,0.51355 0,0.37239 -0.11907,0.67707 -0.26459,0.67707 -0.14552,0 -0.26458,-0.23109 -0.26458,-0.51355 z m 63.76459,-0.16352 c 0,-0.38401 0.1145,-0.60629 0.2646,-0.51355 0.1455,0.0899 0.2646,0.39462 0.2646,0.67707 0,0.28246 -0.1191,0.51355 -0.2646,0.51355 -0.1455,0 -0.2646,-0.30468 -0.2646,-0.67707 z m -62.96679,-2.69636 c 0.007,-0.36213 0.49379,-0.97942 0.64925,-0.82396 0.20842,0.20843 -0.12359,1.02239 -0.41703,1.02239 -0.12995,0 -0.23445,-0.0893 -0.23222,-0.19843 z m 62.06279,-0.23631 c -0.2215,-0.57723 0.073,-0.84553 0.3852,-0.35134 0.3128,0.49473 0.3195,0.78608 0.018,0.78608 -0.1299,0 -0.3113,-0.19563 -0.4031,-0.43474 z m -61.00851,-2.70786 c 0,-0.34486 0.68338,-0.84833 0.88195,-0.64976 0.19856,0.19857 -0.3049,0.88195 -0.64976,0.88195 -0.1277,0 -0.23219,-0.10449 -0.23219,-0.23219 z m 59.83051,-0.12289 c -0.1621,-0.19529 -0.2174,-0.43238 -0.1229,-0.52687 0.1986,-0.19857 0.882,0.3049 0.882,0.64976 0,0.34835 -0.4251,0.27953 -0.7591,-0.12289 z m -58.13902,-2.70927 c 0.0883,-0.23018 0.1606,-0.46831 0.1606,-0.52917 0,-0.0609 0.1796,-0.11065 0.39911,-0.11065 0.33289,0 0.34428,0.0878 0.0687,0.52917 -0.39217,0.62796 -0.85838,0.71006 -0.62836,0.11065 z m 56.57822,-0.11065 c -0.2756,-0.44136 -0.2642,-0.52917 0.069,-0.52917 0.2195,0 0.3991,0.0498 0.3991,0.11065 0,0.0609 0.072,0.29899 0.1606,0.52917 0.23,0.59941 -0.2362,0.51731 -0.6284,-0.11065 z m -54.83012,-2.32834 c 0,-0.27825 0.57466,-0.84666 0.85597,-0.84666 0.12154,0 0.0935,0.23812 -0.0622,0.52916 -0.27966,0.52254 -0.79375,0.72818 -0.79375,0.3175 z m 52.91662,-0.3175 c -0.1557,-0.29104 -0.1837,-0.52916 -0.062,-0.52916 0.2813,0 0.856,0.56841 0.856,0.84666 0,0.41068 -0.5141,0.20504 -0.7938,-0.3175 z m -50.79996,-2.08836 c 0,-0.29344 0.81397,-0.62545 1.0224,-0.41702 0.0841,0.0841 -0.0222,0.26367 -0.23631,0.39905 -0.49473,0.31288 -0.78609,0.31954 -0.78609,0.018 z m 48.69096,-0.018 c -0.214,-0.13538 -0.3204,-0.31495 -0.2363,-0.39905 0.2085,-0.20843 1.0224,0.12358 1.0224,0.41702 0,0.30157 -0.2913,0.29491 -0.7861,-0.018 z m -46.30971,-1.85311 c 0,-0.1404 0.23813,-0.38271 0.52917,-0.53847 0.58277,-0.31189 0.71109,-0.0232 0.21167,0.47625 -0.38255,0.38254 -0.74084,0.41263 -0.74084,0.0622 z m 43.97375,-0.0622 c -0.49942,-0.49943 -0.3711,-0.78814 0.21167,-0.47625 0.29104,0.15576 0.52917,0.39807 0.52917,0.53847 0,0.35041 -0.35829,0.32032 -0.74084,-0.0622 z m -41.32791,-1.47236 c 0,-0.28131 0.56841,-0.85598 0.84666,-0.85598 0.41068,0 0.20504,0.5141 -0.3175,0.79375 -0.29104,0.15576 -0.52916,0.18377 -0.52916,0.0622 z m 38.74256,-0.17562 c -0.28019,-0.20488 -0.41749,-0.46445 -0.30512,-0.57683 0.11238,-0.11238 0.40276,-0.006 0.6453,0.23665 0.57187,0.57188 0.32048,0.82327 -0.34018,0.34018 z m -35.71543,-1.61481 c 0.58303,-0.44099 0.94162,-0.49894 0.94162,-0.15219 0,0.25449 -0.64347,0.56275 -1.14612,0.54906 -0.17,-0.005 -0.078,-0.18322 0.2045,-0.39687 z m 32.75776,0.23006 c -0.36583,-0.14762 -0.45469,-0.61852 -0.11671,-0.61852 0.1177,0 0.44513,0.1748 0.7276,0.38846 0.38272,0.28947 0.41246,0.38528 0.11672,0.37598 -0.21828,-0.007 -0.54571,-0.0725 -0.72761,-0.14592 z m -29.96406,-1.11938 c 0,-0.29344 0.81397,-0.62545 1.02239,-0.41703 0.0841,0.0841 -0.0222,0.26367 -0.2363,0.39905 -0.49474,0.31288 -0.78609,0.31955 -0.78609,0.018 z m 26.99516,-0.018 c -0.21406,-0.13538 -0.3204,-0.31495 -0.2363,-0.39905 0.20842,-0.20842 1.02239,0.12359 1.02239,0.41703 0,0.30157 -0.29135,0.2949 -0.78609,-0.018 z m -23.82016,-1.06866 c 0.51767,-0.33454 1.05833,-0.33454 1.05833,0 0,0.14552 -0.32742,0.26276 -0.7276,0.26053 -0.56699,-0.003 -0.64,-0.0607 -0.33073,-0.26053 z m 20.37292,0 c 0,-0.33454 0.54066,-0.33454 1.05833,0 0.30926,0.19986 0.23626,0.25737 -0.33073,0.26053 -0.40018,0.002 -0.7276,-0.11501 -0.7276,-0.26053 z m -17.4625,-0.52917 c 0,-0.14552 0.23812,-0.26458 0.52916,-0.26458 0.29104,0 0.52917,0.11906 0.52917,0.26458 0,0.14552 -0.23813,0.26458 -0.52917,0.26458 -0.29104,0 -0.52916,-0.11906 -0.52916,-0.26458 z m 14.55208,0 c 0,-0.14552 0.23813,-0.26458 0.52917,-0.26458 0.29104,0 0.52916,0.11906 0.52916,0.26458 0,0.14552 -0.23812,0.26458 -0.52916,0.26458 -0.29104,0 -0.52917,-0.11906 -0.52917,-0.26458 z m -11.37708,-0.26458 c 0,-0.14552 0.23812,-0.26459 0.52916,-0.26459 0.29104,0 0.52917,0.11907 0.52917,0.26459 0,0.14552 -0.23813,0.26458 -0.52917,0.26458 -0.29104,0 -0.52916,-0.11906 -0.52916,-0.26458 z m 3.175,0 c 0,-0.14552 0.17859,-0.26459 0.39687,-0.26459 0.21828,0 0.39688,0.11907 0.39688,0.26459 0,0.14552 -0.1786,0.26458 -0.39688,0.26458 -0.21828,0 -0.39687,-0.11906 -0.39687,-0.26458 z m 2.11666,0 c 0,-0.14552 0.1786,-0.26459 0.39688,-0.26459 0.21828,0 0.39687,0.11907 0.39687,0.26459 0,0.14552 -0.17859,0.26458 -0.39687,0.26458 -0.21828,0 -0.39688,-0.11906 -0.39688,-0.26458 z m 2.91042,0 c 0,-0.14552 0.23812,-0.26459 0.52917,-0.26459 0.29104,0 0.52916,0.11907 0.52916,0.26459 0,0.14552 -0.23812,0.26458 -0.52916,0.26458 -0.29105,0 -0.52917,-0.11906 -0.52917,-0.26458 z"
         id="path2" /></g></g></svg>
