<?xml version="1.0" encoding="UTF-8" standalone="no"?>
<!-- Created with Inkscape (http://www.inkscape.org/) -->

<svg
   width="304.80142mm"
   height="393.17084mm"
   viewBox="0 0 304.80142 393.17084"
   version="1.1"
   id="svg1"
   xml:space="preserve"
   xmlns:inkscape="http://www.inkscape.org/namespaces/inkscape"
   xmlns:sodipodi="http://sodipodi.sourceforge.net/DTD/sodipodi-0.dtd"
   xmlns="http://www.w3.org/2000/svg"
   xmlns:svg="http://www.w3.org/2000/svg"><sodipodi:namedview
     id="namedview1"
     pagecolor="#ffffff"
     bordercolor="#999999"
     borderopacity="1"
     inkscape:showpageshadow="2"
     inkscape:pageopacity="0"
     inkscape:pagecheckerboard="0"
     inkscape:deskcolor="#d1d1d1"
     inkscape:document-units="mm"><inkscape:page
       x="0"
       y="0"
       width="304.80142"
       height="393.17084"
       id="page2"
       margin="0"
       bleed="0" /></sodipodi:namedview><defs
     id="defs1" /><g
     inkscape:label="Layer 1"
     inkscape:groupmode="layer"
     id="layer1"
     transform="translate(-358.43139,30.294328)"><g
       id="g1"
       transform="translate(-796.99828,-225.3537)"
       inkscape:export-filename="g1.png"
       inkscape:export-xdpi="96"
       inkscape:export-ydpi="96"
       style="stroke:none"><rect
         style="fill:none;stroke:none;stroke-width:0.55"
         id="rect1"
         width="304.79999"
         height="393.17084"
         x="1155.4312"
         y="195.05937" /><path
         style="fill:#000000;stroke:none"
         d="m 1155.4312,551.62642 c 0,-1.63416 0.4061,-2.15561 2.0192,-2.59259 0.5629,-0.1525 1.2616,-0.49112 1.5527,-0.7525 0.291,-0.26138 0.9105,-0.55586 1.3766,-0.65439 0.4661,-0.0985 1.1252,-0.39757 1.4645,-0.66453 0.3394,-0.26695 1.105,-0.61676 1.7014,-0.77735 0.5964,-0.16059 1.2268,-0.46363 1.4009,-0.67343 0.1742,-0.20979 0.7536,-0.52164 1.2876,-0.69301 0.5341,-0.17136 1.1556,-0.47197 1.3811,-0.66802 0.2255,-0.19605 0.9159,-0.53495 1.5342,-0.75311 0.6183,-0.21815 1.6244,-0.74713 2.2358,-1.17549 0.6114,-0.42836 1.4904,-0.85597 1.9532,-0.95024 0.4629,-0.0943 0.9828,-0.34149 1.1553,-0.54937 0.1726,-0.20788 0.8017,-0.50936 1.3981,-0.66995 0.5964,-0.16059 1.362,-0.5104 1.7014,-0.77736 0.3393,-0.26695 0.9814,-0.5654 1.4268,-0.66322 0.4453,-0.0978 1.2303,-0.46324 1.7443,-0.81205 0.514,-0.3488 1.1329,-0.63419 1.3753,-0.63419 0.2425,0 0.8281,-0.2857 1.3014,-0.6349 0.4734,-0.3492 1.2584,-0.70954 1.7447,-0.80075 0.4862,-0.0912 1.0242,-0.33477 1.1955,-0.54122 0.1714,-0.20646 0.8885,-0.56702 1.5938,-0.80125 0.7052,-0.23423 1.4223,-0.5948 1.5937,-0.80125 0.1713,-0.20646 0.7093,-0.45001 1.1956,-0.54122 0.4862,-0.0912 1.2713,-0.45156 1.7446,-0.80075 0.4733,-0.3492 1.0524,-0.63491 1.2869,-0.63491 0.2345,0 0.8298,-0.29765 1.3229,-0.66146 0.4931,-0.3638 1.01,-0.66145 1.1487,-0.66145 0.2373,0 9.9021,-4.75621 10.7576,-5.29395 0.2182,-0.13721 0.8135,-0.43524 1.3229,-0.6623 1.1841,-0.52787 2.3365,-1.10387 3.175,-1.58688 0.3638,-0.20958 1.1972,-0.63069 1.8521,-0.93579 0.6548,-0.30511 1.3692,-0.71074 1.5875,-0.90141 0.2182,-0.19067 0.6945,-0.43397 1.0583,-0.54066 0.3638,-0.1067 0.8996,-0.40378 1.1906,-0.66017 0.2911,-0.25639 0.9613,-0.60438 1.4894,-0.7733 0.5281,-0.16892 1.1716,-0.54077 1.43,-0.82634 0.2585,-0.28556 0.6805,-0.5192 0.9378,-0.5192 0.2573,0 0.8044,-0.28137 1.2157,-0.62526 0.4114,-0.34389 1.0456,-0.71737 1.4094,-0.82995 0.3638,-0.11259 0.998,-0.48607 1.4094,-0.82996 0.4113,-0.34389 0.8704,-0.62525 1.0201,-0.62525 0.1497,0 0.626,-0.29766 1.0583,-0.66146 0.4324,-0.3638 0.9507,-0.66146 1.1518,-0.66146 0.2011,0 1.2295,-0.72353 2.2854,-1.60785 1.9041,-1.59477 3.6329,-4.01771 3.6503,-5.11578 0,-0.27825 0.2888,-0.99263 0.632,-1.5875 0.3431,-0.59486 0.6981,-1.6475 0.7888,-2.33919 0.091,-0.69169 0.4036,-1.7257 0.6955,-2.29779 0.3068,-0.60134 0.5996,-1.85675 0.6941,-2.97572 0.09,-1.06455 0.3985,-2.70945 0.6857,-3.65533 1.2004,-3.95224 1.194,-28.92715 -0.01,-33.60209 -0.2807,-1.0914 -0.5791,-3.05098 -0.663,-4.35462 -0.1116,-1.73275 -0.2873,-2.55249 -0.6536,-3.04783 -0.2755,-0.37266 -0.5896,-0.97293 -0.6979,-1.33392 -0.1083,-0.36098 -0.4822,-1.15379 -0.8309,-1.76178 -0.3487,-0.608 -0.634,-1.33553 -0.634,-1.61673 0,-0.2812 -0.2977,-0.9499 -0.6615,-1.48599 -0.3638,-0.53609 -0.6619,-1.17778 -0.6624,-1.42598 -6e-4,-0.2482 -0.3573,-1.16565 -0.7928,-2.03877 -0.4355,-0.87313 -0.7926,-1.82563 -0.7937,-2.11667 -10e-4,-0.29104 -0.245,-0.92767 -0.5419,-1.41472 -0.2969,-0.48705 -0.6547,-1.49081 -0.795,-2.23056 -0.1403,-0.73976 -0.433,-1.54164 -0.6505,-1.78196 -0.2175,-0.24032 -0.525,-1.13779 -0.6833,-1.99437 -0.1584,-0.85659 -0.5011,-1.97793 -0.7616,-2.49187 -0.2605,-0.51394 -0.5599,-1.58928 -0.6653,-2.38964 -0.1055,-0.80037 -0.4116,-1.99099 -0.6802,-2.64584 -0.2686,-0.65484 -0.6145,-1.6844 -0.7686,-2.2879 -0.316,-1.23735 -0.6081,-1.41626 -2.3123,-1.41626 -1.9954,0 -5.1537,-2.3352 -6.0834,-4.49792 -0.219,-0.50932 -0.551,-1.10464 -0.7378,-1.32292 -0.1868,-0.21828 -0.5337,-1.07542 -0.7709,-1.90476 -0.2371,-0.82934 -0.5407,-1.57556 -0.6745,-1.65826 -0.1338,-0.0827 -0.3833,-0.83291 -0.5544,-1.66711 -0.1711,-0.83421 -0.5959,-2.19776 -0.9439,-3.03012 -0.348,-0.83236 -0.6353,-1.96346 -0.6385,-2.51355 0,-0.55008 -0.2519,-1.53594 -0.5527,-2.19078 -0.3008,-0.65485 -0.6515,-1.91089 -0.7793,-2.79122 -0.1279,-0.88033 -0.4616,-2.13049 -0.7416,-2.77813 -0.2799,-0.64764 -0.5908,-1.86803 -0.6907,-2.71199 -0.1,-0.84395 -0.4013,-2.03458 -0.6698,-2.64583 -0.2685,-0.61126 -0.6159,-2.03903 -0.7719,-3.17282 -0.1561,-1.1338 -0.4712,-2.42381 -0.7002,-2.86668 -0.229,-0.44287 -0.5251,-1.83694 -0.658,-3.09792 -0.1328,-1.26099 -0.4657,-2.88802 -0.7396,-3.61562 -0.2739,-0.7276 -0.5725,-2.33495 -0.6636,-3.57188 -0.091,-1.23692 -0.4234,-3.14192 -0.7386,-4.23333 -0.5258,-1.82042 -0.5752,-2.61833 -0.5979,-9.65729 l -0.025,-7.67292 0.7276,-1.29617 c 0.4002,-0.7129 0.7277,-1.43935 0.7277,-1.61433 0,-0.17498 0.7102,-1.03505 1.5783,-1.91125 1.1808,-1.19188 1.8725,-1.66719 2.7465,-1.88725 1.9027,-0.47912 3.5518,-1.2852 3.9675,-1.93939 0.3387,-0.53302 0.3433,-1.1495 0.036,-4.77563 -0.1942,-2.28999 -0.5699,-5.08796 -0.8349,-6.21771 -0.4339,-1.84961 -0.4819,-3.43693 -0.4819,-15.94473 0,-13.43713 0.019,-13.977 0.5944,-16.53645 0.3269,-1.45521 0.7071,-3.6753 0.8449,-4.93354 0.1378,-1.25824 0.4337,-2.72604 0.6575,-3.26179 0.2239,-0.53574 0.5303,-1.9663 0.681,-3.17902 0.1507,-1.21272 0.4969,-2.72147 0.7693,-3.3528 0.2724,-0.63132 0.5794,-1.74037 0.6821,-2.46456 0.1028,-0.72419 0.4105,-1.75506 0.6838,-2.29083 0.2733,-0.53576 0.5715,-1.49105 0.6626,-2.12287 0.091,-0.63182 0.3955,-1.47624 0.6765,-1.87649 0.281,-0.40026 0.6085,-1.25033 0.7278,-1.88906 0.1193,-0.63873 0.4576,-1.5614 0.7517,-2.05039 0.2942,-0.48899 0.617,-1.23686 0.7175,-1.66194 0.1005,-0.42508 0.4052,-1.05575 0.6772,-1.40149 0.2719,-0.34574 0.575,-1.00998 0.6736,-1.47609 0.098,-0.46611 0.3879,-1.08559 0.6431,-1.37663 0.2551,-0.29105 0.59,-0.90662 0.744,-1.36794 0.1541,-0.46132 0.5278,-1.0864 0.8304,-1.38906 0.3027,-0.30266 0.5503,-0.77929 0.5503,-1.05916 0,-0.27988 0.2679,-0.84543 0.5953,-1.25677 0.9382,-1.17863 1.6663,-2.26255 2.1559,-3.20937 0.2486,-0.48069 0.6263,-1.076 0.8393,-1.32292 0.9701,-1.12432 1.9551,-2.40622 2.7847,-3.62395 2.0529,-3.0132 8.5331,-9.3799 12.6571,-12.43542 0.5893,-0.43656 1.361,-1.03187 1.7149,-1.32291 0.354,-0.29105 1.0397,-0.80071 1.5237,-1.13258 0.4841,-0.33187 1.2969,-0.89648 1.8062,-1.25468 0.5093,-0.3582 1.2927,-0.82393 1.7409,-1.03495 0.4481,-0.21103 0.959,-0.55747 1.1353,-0.76988 0.1763,-0.21241 0.6351,-0.46515 1.0195,-0.56164 0.3844,-0.0965 1.0435,-0.46535 1.4646,-0.81971 0.4212,-0.35435 0.9856,-0.64427 1.2543,-0.64427 0.2687,0 0.8251,-0.28225 1.2365,-0.62721 0.4113,-0.34496 1.1266,-0.7098 1.5895,-0.81076 0.4629,-0.10095 0.9789,-0.34894 1.1466,-0.55108 0.1678,-0.20215 0.9343,-0.55048 1.7035,-0.77408 0.7691,-0.22359 1.5373,-0.57387 1.707,-0.7784 0.1698,-0.20453 0.7452,-0.45377 1.2788,-0.55386 0.5335,-0.1001 1.5106,-0.46974 2.1712,-0.82143 0.6607,-0.35169 1.5008,-0.63943 1.8669,-0.63943 0.3661,0 1.2005,-0.28064 1.8542,-0.62363 0.6537,-0.343 1.7544,-0.69796 2.4461,-0.78881 0.6917,-0.0908 1.705,-0.39339 2.2517,-0.67233 0.5468,-0.27893 1.7073,-0.59173 2.5789,-0.69511 0.8716,-0.10337 2.1134,-0.41647 2.7595,-0.69577 0.6461,-0.27931 2.1939,-0.61568 3.4396,-0.74749 1.2456,-0.13182 2.8006,-0.4374 3.4554,-0.67907 0.6549,-0.24168 2.6227,-0.54449 4.3731,-0.67293 1.7503,-0.12844 4.3697,-0.48275 5.8208,-0.78735 2.4378,-0.5117 3.4629,-0.55276 13.4805,-0.53999 10.0759,0.0128 10.9174,0.0493 11.9063,0.51537 2.7115,1.27804 3.654,1.47999 9.8954,2.12029 1.6636,0.17067 3.0052,0.45156 3.4036,0.71262 0.3618,0.23701 1.5065,0.54855 2.5439,0.69231 1.0374,0.14376 2.3909,0.49129 3.0077,0.77228 0.6168,0.28099 1.6892,0.58823 2.3831,0.68275 0.6939,0.0945 1.7854,0.44973 2.4255,0.78936 0.6402,0.33962 1.4493,0.6175 1.7981,0.6175 0.3488,0 1.1933,0.29765 1.8767,0.66146 0.6834,0.3638 1.4221,0.6619 1.6415,0.66245 0.2195,5.5e-4 1.1134,0.35729 1.9865,0.79275 0.8731,0.43547 1.7477,0.79221 1.9435,0.79276 0.1959,5.5e-4 0.6794,0.2312 1.0745,0.51257 0.3952,0.28136 1.0684,0.59713 1.4961,0.7017 0.4277,0.10457 1.1021,0.45958 1.4988,0.78893 0.3967,0.32934 1.069,0.67516 1.494,0.7685 0.4249,0.0933 0.9759,0.39433 1.2244,0.66888 0.2484,0.27454 0.7842,0.5722 1.1906,0.66146 0.4064,0.0893 0.9483,0.39366 1.2042,0.67645 0.2559,0.28279 0.6213,0.51417 0.812,0.51417 0.1906,0 0.7377,0.34112 1.2157,0.75805 0.478,0.41693 1.1213,0.83669 1.4295,0.9328 0.3083,0.0961 0.7732,0.40983 1.0332,0.69715 0.2601,0.28733 0.587,0.52242 0.7266,0.52242 0.1396,0 0.9248,0.56592 1.7449,1.25761 2.2512,1.8986 3.6817,2.97572 3.952,2.97572 0.2417,0 1.3923,1.13487 5.2164,5.14495 1.7589,1.84441 2.7858,3.10055 6.6718,8.1611 0.4704,0.61256 1.0937,1.55215 1.3853,2.08798 0.2915,0.53583 0.6474,1.04677 0.7908,1.13544 0.1435,0.0887 0.5062,0.66228 0.806,1.27472 0.9585,1.95769 1.3792,2.68833 1.86,3.23019 0.2583,0.29104 0.59,0.97377 0.7371,1.51719 0.1471,0.54341 0.5157,1.30361 0.8191,1.68933 0.3034,0.38571 0.5516,0.90731 0.5516,1.1591 0,0.25179 0.25,0.7756 0.5555,1.16402 0.3056,0.38842 0.7147,1.30942 0.9092,2.04666 0.1944,0.73725 0.5297,1.53683 0.745,1.77686 0.2153,0.24003 0.4796,0.91168 0.5875,1.49255 0.1079,0.58086 0.4751,1.58086 0.8162,2.22221 0.341,0.64136 0.62,1.53991 0.62,1.99679 0,0.45688 0.2455,1.30235 0.5455,1.87882 0.3,0.57647 0.6603,1.76251 0.8006,2.63563 0.1404,0.87313 0.4759,2.12328 0.7458,2.77813 0.2698,0.65484 0.5719,2.05707 0.6713,3.11606 0.099,1.05899 0.4087,2.58807 0.6873,3.39794 0.2786,0.80988 0.6345,2.80093 0.7909,4.42456 0.1564,1.62364 0.4864,3.84503 0.7334,4.93644 0.3866,1.70781 0.4489,3.64375 0.4477,13.89062 0,10.32023 -0.064,12.23362 -0.473,14.36381 -0.2592,1.35166 -0.5804,4.20916 -0.7136,6.35 -0.1332,2.14084 -0.3863,4.26184 -0.5625,4.71332 -0.5745,1.47211 0.051,2.08627 3.2592,3.2021 1.7353,0.60349 2.8417,1.24775 3.8659,2.25122 0.7464,0.73132 1.9015,2.41667 1.9015,2.7744 0,0.20729 0.3094,1.03101 0.6877,1.83051 l 0.6876,1.45363 -0.1232,6.66592 c -0.096,5.19583 -0.2183,6.95133 -0.554,7.96004 -0.2369,0.71176 -0.551,2.57021 -0.6981,4.1299 -0.1471,1.55969 -0.4874,3.47765 -0.7562,4.26214 -0.2689,0.78449 -0.5749,2.30806 -0.6801,3.38571 -0.1053,1.07765 -0.4164,2.53024 -0.6914,3.22799 -0.275,0.69775 -0.609,2.14594 -0.7421,3.21821 -0.1331,1.07228 -0.4382,2.32888 -0.6779,2.79246 -0.2397,0.46358 -0.5406,1.64601 -0.6686,2.62763 -0.1279,0.98162 -0.4689,2.32054 -0.7576,2.97539 -0.2887,0.65484 -0.6095,1.90375 -0.7129,2.77536 -0.1034,0.8716 -0.4018,2.00394 -0.6632,2.51631 -0.2614,0.51236 -0.5623,1.6447 -0.6686,2.5163 -0.1064,0.87161 -0.4053,2.00523 -0.6644,2.51917 -0.259,0.51394 -0.5992,1.62836 -0.756,2.47648 -0.1568,0.84812 -0.5122,1.9159 -0.7898,2.37285 -0.2777,0.45695 -0.5868,1.33333 -0.687,1.94751 -0.1003,0.61418 -0.3941,1.38809 -0.6531,1.71979 -0.2589,0.33171 -0.5617,0.90076 -0.6727,1.26456 -0.6294,2.06225 -4.3997,5.02709 -6.3927,5.02709 -1.1275,0 -2.2095,0.59555 -2.2095,1.21616 0,0.21583 -0.2378,0.85867 -0.5286,1.42854 -0.2907,0.56987 -0.6367,1.79951 -0.7688,2.73254 -0.1321,0.93303 -0.4346,2.07233 -0.6722,2.5318 -0.2376,0.45946 -0.5568,1.51702 -0.7093,2.35015 -0.1526,0.83312 -0.4907,1.87195 -0.7514,2.30851 -0.2607,0.43657 -0.5546,1.24618 -0.653,1.79915 -0.098,0.55297 -0.4701,1.55297 -0.8259,2.22222 -0.3559,0.66925 -0.6507,1.52651 -0.6553,1.90502 0,0.37851 -0.3016,1.16445 -0.6601,1.74653 -0.3585,0.58208 -0.6529,1.29646 -0.6542,1.5875 -10e-4,0.29104 -0.2542,0.94237 -0.5621,1.44739 -0.3079,0.50503 -0.7245,1.47302 -0.9259,2.15111 -0.2013,0.67809 -0.5412,1.37818 -0.7551,1.55576 -0.214,0.17758 -0.4637,0.72069 -0.5549,1.20692 -0.091,0.48622 -0.4516,1.2713 -0.8008,1.74461 -0.4697,0.6367 -0.6349,1.20296 -0.6349,2.17681 0,0.72393 -0.2892,2.57604 -0.6428,4.11578 -0.7407,3.22595 -1.32,12.011 -1.3623,20.65891 -0.014,2.83766 -0.1099,5.71489 -0.2135,6.39385 -0.1371,0.89832 -0.07,1.51072 0.2453,2.24896 0.2386,0.55797 0.5341,2.20511 0.6568,3.66032 0.1227,1.45521 0.4036,3.07416 0.6242,3.59767 0.2206,0.52352 0.5245,1.9359 0.6753,3.13863 0.1508,1.20274 0.5001,2.67941 0.7761,3.2815 0.276,0.60208 0.6225,1.74954 0.7699,2.54991 0.2465,1.33811 0.9509,2.95678 2.3075,5.30266 0.5369,0.92852 3.2296,3.71477 4.3912,4.54392 0.3497,0.24962 1.1531,0.8747 1.7854,1.38906 0.6322,0.51435 1.2682,0.93519 1.4133,0.93519 0.1452,0 0.5804,0.24494 0.9672,0.54431 1.235,0.95581 3.0743,2.09173 3.395,2.09671 0.1707,0.003 0.648,0.28886 1.0605,0.63602 0.4126,0.34716 1.1659,0.82787 1.674,1.06824 0.5081,0.24037 1.5191,0.76604 2.2467,1.16815 0.7276,0.40212 1.5611,0.8546 1.8521,1.00552 0.2911,0.15091 0.8864,0.47018 1.3229,0.70949 0.4366,0.2393 1.2105,0.61869 1.7198,0.84308 0.5094,0.22438 1.1047,0.52489 1.3229,0.66778 0.2183,0.14289 0.8136,0.4521 1.323,0.68714 0.5093,0.23504 1.1046,0.5327 1.3229,0.66146 0.2183,0.12876 0.8136,0.42412 1.3229,0.65635 0.5093,0.23222 1.2237,0.58657 1.5875,0.78742 0.3638,0.20086 1.0782,0.55102 1.5875,0.77815 0.5093,0.22712 1.5231,0.70548 2.2527,1.06302 0.7297,0.35754 1.4508,0.65008 1.6023,0.65008 0.1515,0 0.6628,0.2857 1.1361,0.6349 0.4733,0.3492 1.2584,0.70954 1.7446,0.80075 0.4862,0.0912 1.0289,0.34044 1.206,0.55382 0.1771,0.21339 0.81,0.51937 1.4064,0.67996 0.5964,0.16059 1.362,0.5104 1.7014,0.77736 0.3393,0.26695 0.9984,0.56794 1.4645,0.66885 0.4661,0.10092 1.1524,0.39889 1.525,0.66216 0.3727,0.26327 1.0276,0.56299 1.4553,0.66604 0.4276,0.10305 1.2538,0.45407 1.8359,0.78004 0.5821,0.32598 1.4061,0.67368 1.8312,0.77268 0.4251,0.099 1.0662,0.41073 1.4247,0.69275 0.3586,0.28203 0.8442,0.51656 1.0793,0.52118 0.235,0.005 0.6584,0.18323 0.9409,0.39688 0.2825,0.21365 0.7013,0.38846 0.9308,0.38846 0.2294,0 0.8317,0.28169 1.3385,0.62597 0.5067,0.34428 1.3,0.70912 1.7629,0.81075 0.4629,0.10164 0.9789,0.35019 1.1466,0.55233 0.1678,0.20215 0.9343,0.55048 1.7035,0.77407 0.7691,0.2236 1.5367,0.57311 1.7056,0.77669 0.169,0.20358 0.8228,0.49997 1.4529,0.65863 0.6301,0.15867 1.2896,0.4619 1.4655,0.67385 0.1759,0.21195 0.6985,0.46408 1.1614,0.5603 0.4629,0.0962 1.2583,0.41602 1.7677,0.71067 0.5093,0.29466 1.4773,0.70021 2.1511,0.90124 0.6738,0.20103 1.3729,0.54372 1.5537,0.76154 0.1808,0.21783 0.463,0.39678 0.627,0.39767 0.1641,9e-4 0.6178,0.16827 1.0081,0.37194 0.3904,0.20367 1.075,0.45052 1.5214,0.54856 0.7924,0.17404 0.8116,0.21469 0.8116,1.71883 v 1.54059 l -1.1245,-0.34997 c -1.3591,-0.42298 -3.283,-1.35451 -3.4903,-1.68994 -0.083,-0.13393 -0.6226,-0.32327 -1.1997,-0.42076 -0.577,-0.0975 -1.3205,-0.38913 -1.6522,-0.64809 -0.3317,-0.25895 -0.9008,-0.55181 -1.2646,-0.65079 -0.6422,-0.17472 -1.4339,-0.52845 -5.0271,-2.24597 -0.9458,-0.45214 -1.9097,-0.82202 -2.1418,-0.82196 -0.2321,5e-5 -0.6354,-0.2357 -0.8962,-0.52389 -0.2608,-0.2882 -0.9043,-0.60056 -1.4301,-0.69415 -0.5257,-0.0936 -1.1939,-0.38292 -1.485,-0.64297 -0.291,-0.26006 -1.0213,-0.60339 -1.6228,-0.76296 -0.6015,-0.15958 -1.2412,-0.46788 -1.4215,-0.68512 -0.1803,-0.21724 -0.4889,-0.39498 -0.6859,-0.39498 -0.1969,0 -0.7479,-0.23768 -1.2243,-0.52817 -0.4765,-0.2905 -1.1181,-0.52863 -1.4259,-0.52917 -0.3078,-5.5e-4 -0.8478,-0.22764 -1.2,-0.50465 -0.3522,-0.27702 -1.1677,-0.64568 -1.8123,-0.81926 -0.6446,-0.17357 -1.4562,-0.5391 -1.8035,-0.81229 -0.3473,-0.2732 -1.0318,-0.57183 -1.5212,-0.66364 -0.4894,-0.0918 -1.0273,-0.33268 -1.1955,-0.53528 -0.1681,-0.2026 -0.8913,-0.54227 -1.607,-0.75481 -0.7157,-0.21255 -1.6105,-0.62964 -1.9884,-0.92688 -0.3778,-0.29724 -0.9525,-0.54043 -1.2771,-0.54043 -0.3246,0 -0.9057,-0.24824 -1.2914,-0.55164 -0.3857,-0.30341 -1.1459,-0.67201 -1.6893,-0.81911 -0.5434,-0.14711 -1.2262,-0.47396 -1.5172,-0.72633 -0.2911,-0.25237 -1.0211,-0.59869 -1.6223,-0.7696 -0.6012,-0.17092 -1.2408,-0.4888 -1.4214,-0.70641 -0.1806,-0.21761 -0.4471,-0.39566 -0.5923,-0.39566 -0.3885,0 -5.1735,-2.3443 -5.3422,-2.61727 -0.079,-0.12824 -0.5458,-0.30852 -1.0367,-0.40062 -0.491,-0.0921 -1.1,-0.39651 -1.3533,-0.67645 -0.2534,-0.27995 -0.7908,-0.58152 -1.1943,-0.67015 -0.4036,-0.0886 -1.1287,-0.45256 -1.6115,-0.80874 -0.4828,-0.35618 -1.0743,-0.6476 -1.3145,-0.6476 -0.2403,0 -0.6482,-0.23365 -0.9067,-0.51921 -0.2584,-0.28556 -0.9019,-0.66 -1.4301,-0.83208 -0.5281,-0.17208 -1.2967,-0.59328 -1.7081,-0.936 -0.4113,-0.34272 -0.8876,-0.6253 -1.0583,-0.62794 -0.3207,-0.005 -2.16,-1.1409 -3.395,-2.09671 -0.3868,-0.29937 -0.8169,-0.54431 -0.9558,-0.54431 -0.1389,0 -0.6807,-0.32743 -1.204,-0.72761 -0.5234,-0.40018 -1.3826,-1.02526 -1.9094,-1.38906 -3.1927,-2.20481 -6.0925,-5.22982 -6.5983,-6.88319 -0.1106,-0.36159 -0.3733,-0.85382 -0.5836,-1.09385 -0.2104,-0.24003 -0.5459,-1.05567 -0.7456,-1.81254 -0.1996,-0.75687 -0.5386,-1.57252 -0.7533,-1.81255 -0.2146,-0.24003 -0.4736,-1.03172 -0.5754,-1.75933 -0.1018,-0.7276 -0.4187,-1.8587 -0.7041,-2.51354 -0.2854,-0.65484 -0.6199,-2.14313 -0.7434,-3.30729 -0.1235,-1.16417 -0.353,-2.45184 -0.5101,-2.8615 -0.157,-0.40965 -0.2855,-1.20746 -0.2855,-1.77291 0,-1.49653 -0.5133,-3.71079 -1.075,-4.63748 -0.4383,-0.72299 -0.4568,-0.99318 -0.1815,-2.64583 0.1686,-1.01234 0.2781,-3.09001 0.2433,-4.61705 -0.035,-1.52705 0.06,-5.59683 0.2106,-9.04396 0.2884,-6.5975 0.2029,-7.44524 -0.7825,-7.75799 -0.671,-0.21297 -1.22,0.19766 -1.7396,1.30107 -0.3681,0.7816 -1.3468,2.26129 -2.0069,3.03405 -0.1725,0.20193 -0.793,1.0949 -1.3788,1.98437 -1.5104,2.29298 -8.1372,10.14841 -11.0737,13.1266 -2.2874,2.31984 -3.4002,3.19697 -7.9546,6.26973 -0.9051,0.61069 -1.9622,1.35483 -2.349,1.65364 -0.3868,0.29882 -0.8242,0.5433 -0.9719,0.5433 -0.1477,0 -0.6052,0.28136 -1.0165,0.62525 -0.4113,0.34389 -1.0456,0.71737 -1.4094,0.82996 -0.3638,0.11258 -0.998,0.48606 -1.4093,0.82995 -0.4114,0.34389 -0.93,0.62526 -1.1525,0.62526 -0.2224,0 -0.7582,0.29765 -1.1906,0.66145 -0.4323,0.36381 -1.0059,0.66146 -1.2746,0.66146 -0.2688,0 -0.8252,0.28225 -1.2365,0.62721 -0.4114,0.34496 -1.1293,0.71038 -1.5954,0.81204 -0.4661,0.10166 -1.1209,0.39922 -1.4552,0.66123 -0.3343,0.26202 -1.0245,0.56696 -1.5338,0.67765 -0.5093,0.11069 -1.206,0.42073 -1.5482,0.68898 -0.3422,0.26826 -1.0565,0.5637 -1.5875,0.65655 -0.5309,0.0928 -1.4416,0.43628 -2.0237,0.76319 -0.582,0.3269 -1.6099,0.6666 -2.2842,0.75488 -0.6742,0.0883 -1.6267,0.39153 -2.1166,0.67387 -0.49,0.28234 -1.4105,0.59695 -2.0456,0.69912 -0.6351,0.10217 -1.7066,0.46724 -2.3812,0.81127 -1.1596,0.59137 -1.5873,0.63481 -7.8411,0.7963 -7.7391,0.19985 -14.0248,-0.16795 -15.9693,-0.93441 -0.6865,-0.27058 -1.9581,-0.57696 -2.8259,-0.68085 -0.8677,-0.10389 -1.9404,-0.40799 -2.3837,-0.67579 -0.4433,-0.2678 -1.3362,-0.56557 -1.9844,-0.66173 -0.6481,-0.0961 -1.5794,-0.40336 -2.0695,-0.68269 -0.4901,-0.27933 -1.4646,-0.63086 -2.1655,-0.78119 -0.7009,-0.15032 -1.4151,-0.44286 -1.5871,-0.65007 -0.172,-0.20722 -0.8007,-0.50815 -1.397,-0.66874 -0.5964,-0.16059 -1.3686,-0.51551 -1.7159,-0.7887 -0.3473,-0.27319 -1.0283,-0.57116 -1.5133,-0.66216 -0.4851,-0.091 -1.0807,-0.38503 -1.3235,-0.65341 -0.2429,-0.26838 -0.8163,-0.5671 -1.2741,-0.66382 -0.4579,-0.0967 -1.0706,-0.38972 -1.3616,-0.6511 -0.2911,-0.26138 -0.9459,-0.67315 -1.4552,-0.91503 -1.5736,-0.74732 -3.0849,-1.61827 -3.8435,-2.215 -0.3992,-0.31401 -0.8699,-0.57093 -1.046,-0.57093 -0.1761,0 -0.5316,-0.23364 -0.7901,-0.51921 -0.2584,-0.28556 -0.8722,-0.65198 -1.3639,-0.81427 -0.4917,-0.16228 -0.894,-0.39727 -0.894,-0.52219 0,-0.12493 -0.4763,-0.49481 -1.0584,-0.82196 -0.5821,-0.32714 -1.0583,-0.68393 -1.0583,-0.79284 0,-0.10892 -0.2507,-0.2776 -0.5571,-0.37484 -1.3956,-0.44297 -7.9847,-6.81878 -11.2833,-10.91807 -0.9821,-1.22056 -2.6489,-3.2765 -3.7039,-4.56874 -1.055,-1.29225 -1.9182,-2.45542 -1.9182,-2.58483 0,-0.22247 -0.7649,-1.30415 -2.1823,-3.08618 -0.3472,-0.43656 -0.785,-1.17674 -0.9728,-1.64484 -0.5274,-1.31463 -1.9999,-1.47362 -2.2617,-0.2442 -0.066,0.31137 -0.1711,6.16207 -0.2329,13.00154 -0.1038,11.48906 -0.1533,12.58318 -0.6505,14.37694 -0.296,1.06784 -0.6195,2.85378 -0.7188,3.96875 -0.099,1.11498 -0.4059,2.5478 -0.6813,3.18406 -0.2754,0.63625 -0.6103,1.83793 -0.7444,2.6704 -0.1341,0.83246 -0.4911,1.91923 -0.7933,2.41504 -0.3023,0.49582 -0.5501,1.14643 -0.5506,1.44582 -10e-4,0.62712 -1.4693,3.64682 -2.2647,4.65801 -0.7748,0.98498 -3.8573,3.55286 -4.5158,3.76185 -0.3075,0.0976 -0.7718,0.41252 -1.0318,0.69985 -0.26,0.28732 -0.6238,0.52241 -0.8084,0.52241 -0.1845,0 -0.6721,0.27589 -1.0834,0.61309 -0.4114,0.3372 -1.1309,0.76673 -1.5991,0.95451 -0.4681,0.18778 -0.9944,0.51408 -1.1695,0.72511 -0.1752,0.21103 -0.6851,0.55321 -1.1333,0.76039 -0.4481,0.20718 -1.4101,0.73196 -2.1377,1.16618 -0.7276,0.43422 -1.8587,1.04025 -2.5135,1.34673 -0.6549,0.30648 -1.3693,0.71323 -1.5875,0.9039 -0.2183,0.19067 -0.6946,0.43657 -1.0584,0.54646 -0.3638,0.10988 -0.998,0.48115 -1.4093,0.82504 -0.4114,0.34389 -0.9678,0.62526 -1.2365,0.62526 -0.2687,0 -0.8251,0.28224 -1.2365,0.6272 -0.4113,0.34496 -1.1225,0.7089 -1.5803,0.80875 -0.4579,0.0998 -1.0358,0.40617 -1.2842,0.68071 -0.2485,0.27455 -0.782,0.57169 -1.1855,0.66032 -0.4035,0.0886 -1.1287,0.45257 -1.6115,0.80875 -0.4827,0.35618 -1.0696,0.6476 -1.3041,0.6476 -0.2345,0 -0.8298,0.29766 -1.3229,0.66146 -0.4931,0.3638 -1.0949,0.66146 -1.3374,0.66146 -0.2425,0 -0.8773,0.29616 -1.4107,0.65814 -0.5334,0.36197 -1.2941,0.73478 -1.6905,0.82847 -0.3964,0.0937 -0.9589,0.38142 -1.2499,0.63942 -0.2911,0.25799 -0.9738,0.58944 -1.5172,0.73655 -0.5435,0.1471 -1.3037,0.5157 -1.6894,0.81911 -0.3857,0.3034 -0.9073,0.55164 -1.1591,0.55164 -0.2518,0 -0.7734,0.24824 -1.1591,0.55164 -0.3857,0.30341 -1.1459,0.67201 -1.6893,0.81911 -0.5434,0.14711 -1.2262,0.48133 -1.5172,0.74271 -0.291,0.26138 -0.9014,0.55386 -1.3564,0.64996 -0.455,0.0961 -1.2223,0.46613 -1.7051,0.82231 -0.4828,0.35618 -1.0991,0.6476 -1.3696,0.6476 -0.2705,0 -0.9298,0.29766 -1.4652,0.66146 -0.5354,0.3638 -1.1673,0.66146 -1.4042,0.66146 -0.237,0 -0.8514,0.28539 -1.3654,0.63419 -0.514,0.34881 -1.2989,0.71423 -1.7443,0.81205 -0.4453,0.0978 -1.0851,0.39444 -1.4216,0.65917 -0.3366,0.26473 -1.0547,0.60357 -1.5958,0.75298 -0.5411,0.14941 -1.2995,0.5199 -1.6852,0.8233 -0.3857,0.3034 -0.8386,0.55164 -1.0065,0.55164 -0.4015,0 -2.2155,0.92972 -2.7639,1.4165 -0.2372,0.21065 -0.876,0.50378 -1.4194,0.6514 -0.5434,0.14762 -1.3036,0.51664 -1.6893,0.82004 -0.3857,0.30341 -0.9003,0.55165 -1.1434,0.55165 -0.2432,0 -0.8455,0.29765 -1.3387,0.66145 -0.4931,0.36381 -1.1619,0.66146 -1.4863,0.66146 -0.3243,0 -0.9435,0.29766 -1.3758,0.66146 -0.4324,0.3638 -1.0202,0.66146 -1.3063,0.66146 -0.2861,0 -0.9566,0.29616 -1.49,0.65814 -0.5334,0.36198 -1.2942,0.73732 -1.6906,0.8341 -0.3964,0.0968 -1.0047,0.39592 -1.3517,0.66477 -0.9494,0.73549 -1.0888,0.61702 -1.0888,-0.92538 z m 156.501,-48.8624 c 1.0187,-0.13918 3.2213,-0.36505 4.8948,-0.50195 1.9546,-0.15989 3.4685,-0.43373 4.2334,-0.76572 0.6548,-0.28425 1.8454,-0.59734 2.6458,-0.69576 0.8004,-0.0984 1.8268,-0.39693 2.2811,-0.66337 0.4542,-0.26643 1.3471,-0.57116 1.9843,-0.67719 0.6372,-0.10602 1.6348,-0.46296 2.2169,-0.79319 0.5821,-0.33023 1.4928,-0.6764 2.0239,-0.76928 0.5311,-0.0929 1.1066,-0.33875 1.279,-0.5464 0.1723,-0.20765 0.9426,-0.56048 1.7117,-0.78408 0.7692,-0.22359 1.5413,-0.57867 1.7159,-0.78907 0.1746,-0.2104 0.6518,-0.45596 1.0604,-0.5457 0.4085,-0.0897 1.1378,-0.45457 1.6206,-0.81075 0.4828,-0.35618 1.0172,-0.6476 1.1875,-0.6476 0.1704,0 0.618,-0.24237 0.9946,-0.5386 0.3765,-0.29623 1.0772,-0.67245 1.557,-0.83604 0.4798,-0.16358 1.2089,-0.57606 1.6202,-0.9166 0.4114,-0.34055 0.9082,-0.61918 1.1042,-0.61918 0.1959,0 0.71,-0.29766 1.1424,-0.66146 0.4323,-0.3638 0.8969,-0.66146 1.0325,-0.66146 0.1355,0 0.526,-0.29765 0.8678,-0.66146 0.3418,-0.3638 0.7684,-0.66145 0.9482,-0.66145 0.1797,0 1.1644,-0.68461 2.1881,-1.52136 1.0238,-0.83674 2.4336,-1.93395 3.1329,-2.43823 1.7448,-1.25827 4.0347,-3.56936 6.9562,-7.02062 1.355,-1.60073 2.6215,-3.08901 2.8143,-3.30729 0.9402,-1.06396 1.9745,-2.39501 2.9812,-3.83646 0.6098,-0.87313 1.5202,-2.12328 2.0231,-2.77813 0.5029,-0.65484 1.0361,-1.47215 1.1849,-1.81624 0.1489,-0.34409 0.5133,-0.9394 0.81,-1.32292 0.9276,-1.19936 2.0867,-3.06573 2.0917,-3.36827 0,-0.15935 0.229,-0.4926 0.503,-0.74056 0.274,-0.24796 0.7005,-0.98078 0.9479,-1.6285 0.2474,-0.64772 0.546,-1.17767 0.6637,-1.17767 0.1177,0 0.4125,-0.49612 0.6551,-1.10248 0.2426,-0.60637 0.6723,-1.39633 0.9548,-1.75548 0.2825,-0.35914 0.5136,-0.859 0.5136,-1.11079 0,-0.2518 0.2407,-0.76378 0.5349,-1.13773 0.2941,-0.37396 0.714,-1.18778 0.933,-1.80849 0.219,-0.6207 0.5667,-1.31482 0.7728,-1.54247 0.206,-0.22766 0.4898,-0.9267 0.6306,-1.55343 0.1408,-0.62673 0.4361,-1.33935 0.6561,-1.58359 0.2201,-0.24425 0.4831,-0.80127 0.5844,-1.23784 0.1013,-0.43656 0.4517,-1.27 0.7787,-1.85208 0.327,-0.58208 0.6761,-1.50825 0.7758,-2.05814 0.1,-0.54989 0.4048,-1.38333 0.6778,-1.85208 0.273,-0.46875 0.5832,-1.32754 0.6894,-1.90841 0.1063,-0.58087 0.4722,-1.58086 0.8132,-2.22222 0.341,-0.64135 0.62,-1.53707 0.62,-1.9905 0,-0.45342 0.2492,-1.28926 0.5537,-1.85742 0.3045,-0.56815 0.6751,-1.81655 0.8235,-2.7742 0.1485,-0.95766 0.4881,-2.17008 0.7547,-2.69427 0.2666,-0.52419 0.5673,-1.8633 0.6681,-2.97581 0.2611,-2.88145 0.3125,-2.92456 3.3974,-2.85082 2.5485,0.0609 2.5697,0.0562 3.5375,-0.79354 1.194,-1.04835 2.4069,-2.9067 2.8536,-4.37204 0.1839,-0.60355 0.5072,-1.43699 0.7184,-1.85208 0.2112,-0.4151 0.471,-1.46897 0.5773,-2.34194 0.1063,-0.87298 0.3726,-1.93402 0.5918,-2.35788 0.2192,-0.42386 0.5616,-1.70507 0.761,-2.84714 0.1994,-1.14206 0.5548,-2.44827 0.7897,-2.90269 0.235,-0.45441 0.5313,-1.56047 0.6584,-2.4579 0.1271,-0.89743 0.4601,-2.16158 0.7401,-2.80922 0.28,-0.64764 0.5908,-1.86804 0.6907,-2.712 0.1,-0.84395 0.4004,-2.03458 0.6677,-2.64583 0.2673,-0.61125 0.5662,-1.82574 0.6643,-2.69887 0.098,-0.87313 0.4655,-2.44094 0.8163,-3.48403 0.3508,-1.04309 0.6418,-2.47184 0.6465,-3.175 0,-0.70316 0.2421,-1.93331 0.5273,-2.73368 0.2853,-0.80036 0.6434,-2.70536 0.7959,-4.23333 0.1525,-1.52797 0.4523,-3.4553 0.6663,-4.28296 0.6232,-2.41039 0.9786,-6.93375 0.8604,-10.95114 -0.1014,-3.44791 -0.1646,-3.83134 -0.8498,-5.15937 -0.9941,-1.92654 -2.1052,-3.03868 -3.82,-3.82376 -1.6779,-0.76816 -3.8806,-0.87068 -5.1049,-0.23759 -1.4002,0.72406 -1.6509,0.39175 -1.4667,-1.94392 0.089,-1.12418 0.3939,-2.94749 0.6784,-4.0518 0.2845,-1.10431 0.5949,-3.42603 0.6898,-5.15938 0.095,-1.73335 0.343,-4.11385 0.5512,-5.29001 1.1213,-6.33434 1.201,-25.96444 0.117,-28.8101 -0.1647,-0.43233 -0.4576,-2.75405 -0.6508,-5.15937 -0.1932,-2.40532 -0.5269,-4.84956 -0.7415,-5.43164 -0.2146,-0.58209 -0.4788,-1.89152 -0.5871,-2.90986 -0.1083,-1.01834 -0.416,-2.28099 -0.6838,-2.80589 -0.2678,-0.5249 -0.5682,-1.59671 -0.6675,-2.38181 -0.099,-0.78509 -0.4629,-2.03425 -0.8079,-2.77589 -0.3451,-0.74165 -0.6274,-1.64665 -0.6274,-2.01112 0,-0.36446 -0.2977,-1.22248 -0.6615,-1.90669 -0.3638,-0.68422 -0.6614,-1.4591 -0.6614,-1.72196 0,-0.26285 -0.3572,-1.14727 -0.7938,-1.96537 -0.4365,-0.8181 -0.7937,-1.7047 -0.7937,-1.97022 0,-0.26552 -0.2977,-0.88621 -0.6615,-1.37932 -0.3638,-0.49311 -0.6614,-1.09549 -0.6614,-1.33864 0,-0.24314 -0.2424,-0.7502 -0.5386,-1.1268 -0.2963,-0.3766 -0.6725,-1.07726 -0.8361,-1.55704 -0.1636,-0.47977 -0.576,-1.20887 -0.9166,-1.62022 -0.3405,-0.41134 -0.6192,-0.87527 -0.6192,-1.03094 0,-0.36553 -1.6935,-2.9196 -2.2325,-3.36692 -0.2273,-0.18864 -0.4133,-0.48783 -0.4133,-0.66486 0,-0.39355 -0.8206,-1.51392 -3.5551,-4.85377 -4.0644,-4.96416 -8.2199,-8.99994 -10.2494,-9.95421 -0.5348,-0.25143 -1.2331,-0.83479 -1.5519,-1.29635 -0.5547,-0.80307 -1.9878,-1.97656 -3.4482,-2.82358 -0.3763,-0.21828 -0.8534,-0.54789 -1.0601,-0.73246 -0.6829,-0.60965 -2.7518,-1.90366 -3.0515,-1.90856 -0.1619,-0.003 -0.7438,-0.362 -1.2932,-0.79857 -0.5493,-0.43656 -1.1736,-0.79375 -1.3872,-0.79375 -0.2137,0 -0.7422,-0.29765 -1.1746,-0.66145 -0.4323,-0.36381 -0.9984,-0.66146 -1.258,-0.66146 -0.2596,0 -0.8925,-0.28539 -1.4065,-0.63419 -0.514,-0.34881 -1.3343,-0.71885 -1.8228,-0.82232 -0.4886,-0.10347 -1.1265,-0.40054 -1.4175,-0.66016 -0.2911,-0.25962 -0.9459,-0.55609 -1.4552,-0.65883 -0.5094,-0.10274 -1.4235,-0.47278 -2.0315,-0.82232 -0.608,-0.34953 -1.394,-0.63552 -1.7466,-0.63552 -0.3526,0 -1.1679,-0.28014 -1.8119,-0.62254 -0.6439,-0.34239 -1.763,-0.71003 -2.4868,-0.81697 -0.7238,-0.10694 -1.6731,-0.41249 -2.1097,-0.67899 -0.4366,-0.26651 -1.6393,-0.60103 -2.6726,-0.74339 -1.0334,-0.14236 -2.2641,-0.45803 -2.7349,-0.70149 -0.4708,-0.24345 -1.8395,-0.54412 -3.0416,-0.66814 -1.2021,-0.12402 -2.6503,-0.42009 -3.2183,-0.65793 -0.5679,-0.23784 -2.4018,-0.54832 -4.0753,-0.68995 -1.6735,-0.14164 -4.1738,-0.52179 -5.5563,-0.84479 -2.3615,-0.55176 -3.1054,-0.58676 -12.3031,-0.57889 -9.1402,0.008 -9.9403,0.0463 -12.0623,0.58028 -1.2499,0.31454 -3.5121,0.65238 -5.027,0.75074 -1.5458,0.10037 -3.4473,0.40696 -4.3334,0.69871 -0.8684,0.28593 -2.553,0.62037 -3.7435,0.7432 -1.1905,0.12283 -2.6231,0.45339 -3.1836,0.73458 -0.5604,0.28118 -1.6901,0.57742 -2.5105,0.6583 -0.8204,0.0809 -1.8919,0.35537 -2.3813,0.60996 -0.4893,0.2546 -1.6577,0.62495 -2.5964,0.82301 -0.9387,0.19806 -1.8912,0.5221 -2.1167,0.7201 -0.2254,0.198 -1.0487,0.49417 -1.8295,0.65816 -0.7808,0.16399 -1.7333,0.5181 -2.1167,0.78691 -0.3833,0.26881 -1.1314,0.5679 -1.6623,0.66464 -0.531,0.0967 -1.2454,0.39538 -1.5875,0.66363 -0.3422,0.26826 -1.0036,0.57102 -1.4697,0.6728 -0.4661,0.10179 -1.1209,0.39765 -1.4552,0.65746 -0.3342,0.25982 -1.0447,0.61487 -1.5787,0.78899 -0.5341,0.17413 -1.1092,0.48301 -1.278,0.68641 -0.1688,0.20339 -0.7438,0.50809 -1.2779,0.67711 -0.5341,0.16903 -1.1023,0.47151 -1.2627,0.67219 -0.1605,0.20068 -0.7288,0.54747 -1.2629,0.77065 -0.5341,0.22318 -1.1768,0.59245 -1.4281,0.8206 -0.2513,0.22815 -1.1118,0.81142 -1.9121,1.29615 -4.4724,2.70864 -12.9413,10.28485 -15.6139,13.96807 -0.5074,0.69929 -1.5774,2.09097 -2.3778,3.09261 -2.0561,2.57322 -4.3238,6.12114 -5.5206,8.63753 -0.2866,0.60243 -0.6412,1.16964 -0.7882,1.26046 -0.1469,0.0908 -0.4114,0.60995 -0.5878,1.15362 -0.1763,0.54368 -0.5287,1.28616 -0.783,1.64996 -0.2543,0.36381 -0.5893,1.12203 -0.7443,1.68494 -0.1551,0.56292 -0.4808,1.24324 -0.7239,1.51182 -0.2431,0.26859 -0.5444,1.03682 -0.6696,1.70719 -0.1253,0.67037 -0.4542,1.50671 -0.7309,1.85852 -0.2767,0.35182 -0.5848,1.18429 -0.6847,1.84995 -0.1,0.66566 -0.402,1.58979 -0.6715,2.05363 -0.2695,0.46383 -0.5734,1.43864 -0.6752,2.16625 -0.1018,0.7276 -0.4146,1.83548 -0.6951,2.46195 -0.2805,0.62648 -0.6173,2.07964 -0.7484,3.22926 -0.1311,1.14962 -0.442,2.48252 -0.6908,2.962 -0.3164,0.60992 -0.5124,1.90497 -0.6523,4.31137 -0.11,1.89177 -0.3145,3.73724 -0.4546,4.10104 -0.7374,1.91533 -0.8942,5.65698 -0.7764,18.52083 0.1006,10.9798 0.1902,13.37488 0.554,14.81667 0.2387,0.94589 0.5504,3.42433 0.6928,5.50766 0.1623,2.37541 0.4581,4.43301 0.7932,5.51798 0.632,2.04618 0.7214,4.32019 0.1698,4.32019 -0.2005,0 -0.792,-0.17859 -1.3144,-0.39687 -2.7578,-1.15231 -6.3779,0.12587 -8.2137,2.90016 -0.9445,1.42727 -1.058,1.79034 -1.2655,4.04754 -0.3039,3.30595 0.1427,12.46195 0.6936,14.21897 0.2281,0.7276 0.5368,2.51354 0.6861,3.96875 0.1492,1.4552 0.5017,3.3602 0.7832,4.23333 0.2815,0.87312 0.62,2.48047 0.7522,3.57187 0.1322,1.09141 0.4402,2.46063 0.6844,3.04271 0.2442,0.58209 0.5537,1.92189 0.6877,2.97733 0.134,1.05545 0.4388,2.29651 0.6774,2.7579 0.2386,0.46139 0.5358,1.65114 0.6605,2.64389 0.1246,0.99274 0.4216,2.18196 0.6598,2.64269 0.2383,0.46073 0.5962,1.77113 0.7953,2.91199 0.1992,1.14086 0.5329,2.342 0.7416,2.66921 0.2087,0.3272 0.5106,1.46156 0.6709,2.52079 0.1603,1.05923 0.5279,2.36716 0.817,2.9065 0.3233,0.60312 0.5261,1.4914 0.5269,2.30745 10e-4,0.94557 0.1887,1.63095 0.6532,2.38517 0.3586,0.58208 0.6556,1.30985 0.6601,1.61726 0.01,0.63371 1.0768,2.13756 2.5694,3.61991 l 1.0108,1.00384 2.2489,-0.045 c 1.237,-0.0247 2.4039,-0.03 2.5932,-0.0116 0.5417,0.0524 1.1184,1.74754 1.3826,4.06333 0.1333,1.16877 0.4338,2.41732 0.6679,2.77455 0.2341,0.35724 0.5469,1.4429 0.6951,2.41258 0.1482,0.96968 0.4833,2.12024 0.7447,2.55681 0.2613,0.43656 0.5572,1.32953 0.6575,1.98437 0.1004,0.65485 0.4701,1.75398 0.8218,2.44253 0.3516,0.68854 0.6393,1.52293 0.6393,1.85419 0,0.33125 0.2815,1.13712 0.6255,1.7908 0.344,0.65369 0.7043,1.62293 0.8007,2.15387 0.096,0.53094 0.4004,1.25165 0.6757,1.60157 0.2752,0.34993 0.5832,1.07741 0.6844,1.61664 0.1011,0.53923 0.4012,1.25667 0.6668,1.59431 0.2656,0.33765 0.57,0.96169 0.6764,1.38677 0.2148,0.85774 1.8602,4.25291 2.362,4.87391 0.1764,0.21828 0.461,0.83383 0.6323,1.36789 0.1714,0.53407 0.4724,1.1045 0.669,1.26763 0.1966,0.16313 0.4263,0.5711 0.5105,0.90659 0.163,0.64947 1.7451,3.3843 2.3716,4.09949 0.2062,0.2355 0.4649,0.72584 0.5748,1.08965 0.1099,0.3638 0.4514,0.97733 0.7589,1.36341 0.3075,0.38607 0.9163,1.31675 1.3529,2.06816 0.4365,0.75142 1.0914,1.77009 1.4552,2.26373 0.3638,0.49363 0.9363,1.28936 1.2723,1.76829 1.102,1.57088 2.5553,3.51061 3.0327,4.04774 0.2578,0.28997 1.7624,2.07502 3.3437,3.96679 3.1034,3.71279 7.3443,7.99549 8.6232,8.70824 0.9977,0.55607 2.2056,1.43452 3.033,2.20582 0.3512,0.32743 0.7538,0.59532 0.8945,0.59532 0.1407,0 0.6461,0.29765 1.1231,0.66145 0.4769,0.36381 0.9472,0.66146 1.0451,0.66146 0.098,0 0.5316,0.29766 0.964,0.66146 0.4323,0.3638 0.9464,0.66146 1.1423,0.66146 0.196,0 0.7009,0.28992 1.122,0.64428 0.4211,0.35435 1.0802,0.72322 1.4646,0.81971 0.3845,0.0965 0.8364,0.34094 1.0043,0.54323 0.3251,0.39177 4.4877,2.4907 4.9395,2.4907 0.1476,0 0.4162,0.17804 0.5968,0.39565 0.1806,0.21762 0.8202,0.53798 1.4214,0.71193 0.6012,0.17395 1.5077,0.59122 2.0144,0.92726 0.5067,0.33604 1.1999,0.61099 1.5404,0.61099 0.3405,0 1.1165,0.28435 1.7245,0.63189 0.608,0.34754 1.5681,0.71315 2.1336,0.81247 0.5654,0.0993 1.4443,0.40367 1.953,0.67634 0.5087,0.27267 1.5863,0.57838 2.3945,0.67937 0.8083,0.10098 1.989,0.41336 2.6238,0.69418 0.7485,0.33109 2.2425,0.59884 4.2503,0.76169 1.7029,0.13813 3.7509,0.35328 4.5513,0.47813 2.0093,0.31343 3.7757,0.32015 5.9531,0.0227 z m -4.6302,-19.02688 c 0,-0.13598 0.893,-0.23016 1.9844,-0.20928 1.0914,0.0209 1.9844,0.13213 1.9844,0.24723 0,0.11511 -0.893,0.20928 -1.9844,0.20928 -1.0914,0 -1.9844,-0.11125 -1.9844,-0.24723 z m -10.7817,-1.34851 c -0.6373,-0.25616 -0.7702,-0.64625 -0.3157,-0.92709 0.3954,-0.24439 1.3262,0.0497 2.1016,0.66408 l 0.6615,0.52407 -0.9261,-0.0109 c -0.5093,-0.006 -1.1939,-0.11856 -1.5213,-0.25017 z m 23.6368,0.0452 c -0.077,-0.1252 0.3363,-0.44272 0.9192,-0.70559 0.8399,-0.37873 1.1268,-0.41016 1.3819,-0.15142 0.2534,0.25703 0.2126,0.40723 -0.1916,0.7056 -0.5643,0.41648 -1.887,0.51142 -2.1095,0.15141 z m -32.2351,-3.20664 c -0.3663,-0.28813 -0.9849,-0.64509 -1.3745,-0.79325 -0.3897,-0.14816 -0.6357,-0.38734 -0.5466,-0.53152 0.1018,-0.1646 0.3784,-0.12661 0.7436,0.1021 0.3198,0.20033 1.0116,0.43946 1.5374,0.5314 0.5257,0.0919 1.1692,0.40296 1.43,0.69116 0.4627,0.51127 0.4548,0.52399 -0.3248,0.52399 -0.4395,0 -1.0988,-0.23575 -1.4651,-0.52388 z m 41.1939,0.0104 c 0.2556,-0.2824 0.9587,-0.63075 1.5624,-0.77411 0.6037,-0.14336 1.3842,-0.34778 1.7344,-0.45426 0.4517,-0.13737 0.5817,-0.10464 0.4474,0.11264 -0.1041,0.16844 -0.3556,0.30626 -0.5588,0.30626 -0.2032,0 -0.8081,0.29766 -1.3442,0.66146 -0.5361,0.3638 -1.2742,0.66146 -1.6403,0.66146 -0.642,0 -0.6491,-0.0182 -0.2009,-0.51345 z m -50.5251,-4.7834 c -1.241,-0.57213 -2.5754,-1.8469 -1.9334,-1.8469 0.2221,0 0.8084,0.29462 1.3029,0.6547 0.4945,0.36009 1.1669,0.77386 1.4943,0.9195 0.3275,0.14563 0.5953,0.38679 0.5953,0.53592 0,0.35591 -0.191,0.32145 -1.4591,-0.26322 z m 61.1227,-0.40647 c 0.7343,-0.62316 2.2539,-1.44043 2.6783,-1.44043 0.3964,0 -0.8838,1.14401 -1.8079,1.61565 -1.3825,0.70564 -1.8076,0.62008 -0.8704,-0.17522 z m -71.0972,-6.423 c -1.8548,-1.76936 -1.508,-2.25022 0.3894,-0.53992 0.8356,0.75317 1.5192,1.47041 1.5192,1.59387 0,0.50824 -0.6435,0.15289 -1.9086,-1.05395 z m 79.5879,1.05277 c -0.1318,-0.21323 2.772,-2.94937 3.1301,-2.94937 0.514,0 -0.024,0.85934 -1.1036,1.76153 -1.5827,1.32306 -1.8471,1.47805 -2.0265,1.18784 z m -86.2901,-8.04541 c -1.0465,-1.11329 -1.7666,-2.26857 -1.6437,-2.63715 0.055,-0.16392 0.3639,-0.0114 0.7031,0.34686 0.6766,0.71433 2.1431,2.76883 2.1431,3.00223 0,0.3546 -0.4509,0.0876 -1.2025,-0.71194 z m 94.1051,0.11111 c 0.1997,-0.26787 0.7202,-0.97629 1.1568,-1.57429 0.4365,-0.59799 0.9388,-1.14754 1.116,-1.22121 0.6057,-0.25177 0.6132,0.33462 0.013,0.99128 -0.3298,0.36067 -0.8973,1.0187 -1.2611,1.46229 -0.7403,0.90273 -1.6749,1.21466 -1.0244,0.34193 z m -100.1427,-8.11383 c -0.238,-0.23803 -0.4328,-0.52697 -0.4328,-0.64209 0,-0.11512 -0.3554,-0.65658 -0.7899,-1.20324 -0.7366,-0.92692 -0.8314,-1.46007 -0.2596,-1.46007 0.1332,0 0.4374,0.38695 0.676,0.85989 0.2387,0.47294 0.741,1.1881 1.1163,1.58925 0.4798,0.51275 0.5994,0.81245 0.4026,1.00919 -0.1967,0.19674 -0.4084,0.15133 -0.7126,-0.15293 z m 106.1943,0.14744 c 0,-0.33424 1.4644,-2.49213 1.9837,-2.9231 0.6782,-0.56285 0.8015,-0.0446 0.1741,0.73136 -0.3217,0.3978 -0.7618,1.11022 -0.978,1.58317 -0.3589,0.785 -1.1798,1.20844 -1.1798,0.60857 z m -111.7172,-9.19393 c -0.2529,-0.28124 -0.5352,-0.88782 -0.6272,-1.34795 -0.092,-0.46013 -0.3316,-0.97291 -0.5323,-1.13951 -0.4047,-0.33586 -0.4862,-0.76729 -0.145,-0.76729 0.4106,0 1.9342,2.64124 1.849,3.20532 -0.083,0.55264 -0.091,0.55335 -0.5445,0.0494 z m 117.2734,0.0882 c 0,-0.19866 0.22,-0.64515 0.4888,-0.99219 0.2689,-0.34705 0.5701,-0.96352 0.6694,-1.36993 0.1767,-0.72351 0.8159,-1.21167 1.1495,-0.878 0.092,0.0925 -0.074,0.49649 -0.371,0.8977 -0.2967,0.40121 -0.6302,1.02482 -0.7412,1.38581 -0.3506,1.13981 -1.1955,1.81588 -1.1955,0.95661 z m -121.7965,-9.07562 c -0.097,-0.097 -0.1764,-0.43647 -0.1764,-0.75434 0,-0.31787 -0.2923,-1.12774 -0.6496,-1.7997 -0.3704,-0.69666 -0.541,-1.28887 -0.3969,-1.37793 0.4113,-0.25417 0.7291,0.0896 0.9268,1.00254 0.102,0.47128 0.4088,1.1729 0.6818,1.55917 0.2729,0.38626 0.4962,0.89228 0.4962,1.12448 0,0.42315 -0.551,0.57671 -0.8819,0.24578 z m 126.4729,0.002 c -0.088,-0.0879 -0.032,-0.39979 0.1255,-0.693 0.1569,-0.29321 0.4206,-1.07984 0.586,-1.74807 0.1963,-0.79324 0.4614,-1.24572 0.7637,-1.30358 0.6928,-0.13262 0.5847,0.82331 -0.1984,1.754 -0.3638,0.43236 -0.6615,1.02978 -0.6615,1.32761 0,0.5675 -0.3421,0.93618 -0.6153,0.66304 z m 3.5975,-10.48447 c 0.084,-0.5171 0.37,-1.27413 0.6357,-1.68228 l 0.4831,-0.74211 0.083,0.84883 c 0.093,0.95562 -0.4225,2.21155 -0.9828,2.39454 -0.2893,0.0945 -0.3375,-0.0861 -0.2186,-0.81898 z m -133.9357,-0.22548 c -0.3121,-0.51192 -0.5404,-1.33914 -0.5375,-1.94807 l 0.01,-1.05833 0.5135,0.66146 c 0.5076,0.65393 1.0014,2.7948 0.7114,3.08477 -0.082,0.0824 -0.394,-0.25048 -0.6923,-0.73983 z m 136.9436,-9.40758 c -0.093,-0.0931 -0.1693,-0.5096 -0.1693,-0.92551 0,-0.94848 0.7385,-1.27314 2.4556,-1.0796 1.1956,0.13476 1.5146,0.60108 0.4112,0.60108 -0.2979,0 -0.9886,0.354 -1.5349,0.78667 -0.5463,0.43266 -1.0694,0.71047 -1.1626,0.61736 z m -139.8683,-0.47677 c -0.1806,-0.21761 -0.8202,-0.53534 -1.4214,-0.70606 -0.6012,-0.17073 -1.1891,-0.39226 -1.3064,-0.4923 -0.2416,-0.20608 2.9935,-0.55257 3.3134,-0.35486 0.2854,0.17635 0.2626,1.94888 -0.025,1.94888 -0.1277,0 -0.3799,-0.17805 -0.5605,-0.39566 z m -8.7229,-7.52445 c -0.1506,-0.28148 -0.2791,-0.84702 -0.2855,-1.25677 -0.01,-0.40975 -0.1928,-1.22125 -0.4143,-1.80333 -0.7656,-2.01235 -0.7666,-2.03939 -0.074,-1.94147 0.5124,0.0724 0.6628,0.29 0.7932,1.14772 0.089,0.58208 0.4254,1.63255 0.7485,2.33438 0.3232,0.70183 0.5224,1.44597 0.4427,1.65365 -0.2077,0.54115 -0.8896,0.46557 -1.2105,-0.13418 z m 156.8886,0.0599 c 0,-0.26878 0.1748,-0.73822 0.3884,-1.0432 0.2136,-0.30497 0.4592,-1.0756 0.5458,-1.71251 0.2897,-2.1311 0.376,-2.34865 0.9312,-2.34865 0.8058,0 0.8827,0.61987 0.252,2.03124 -0.3136,0.70183 -0.6533,1.7523 -0.7548,2.33439 -0.1435,0.82239 -0.316,1.07718 -0.7736,1.14288 -0.4269,0.0613 -0.589,-0.05 -0.589,-0.40415 z m -159.9123,-11.07899 c -0.088,-0.23019 -0.1606,-0.77188 -0.1606,-1.20377 0,-0.43188 -0.1887,-1.1502 -0.4194,-1.59626 -0.279,-0.53957 -0.331,-0.89938 -0.1554,-1.07506 0.3952,-0.39518 0.7762,-0.0376 0.9836,0.9232 0.1017,0.47127 0.413,1.30743 0.6918,1.85812 0.2788,0.5507 0.4358,1.11624 0.349,1.25677 -0.2507,0.40559 -1.1127,0.29658 -1.289,-0.163 z m 163.2269,-0.30909 c 0.1083,-0.40018 0.3343,-1.38173 0.5022,-2.18122 0.2112,-1.00568 0.4449,-1.48051 0.7586,-1.5409 0.2493,-0.048 0.5217,0.091 0.6053,0.30881 0.2202,0.57394 -1.2328,4.14091 -1.6869,4.14091 -0.2817,0 -0.3267,-0.18265 -0.1792,-0.7276 z m -165.7237,-9.525 c -0.3687,-0.71684 -0.635,-4.0349 -0.3238,-4.0349 0.69,0 1.7917,3.55318 1.2894,4.15843 -0.3851,0.46403 -0.683,0.42592 -0.9656,-0.12353 z m 168.263,0.10599 c -0.3271,-0.39412 0.7622,-4.2243 1.164,-4.09296 0.2781,0.0909 0.2765,0.34379 -0.018,2.64937 -0.1917,1.5037 -0.6342,2.06079 -1.1464,1.44359 z M 1222.5465,373.9217 c -0.2422,-0.87093 -0.4403,-1.87593 -0.4403,-2.23334 0,-0.70371 0.4464,-1.14513 0.7858,-0.77708 0.3095,0.33561 0.6192,4.59392 0.3341,4.59392 -0.1317,0 -0.4375,-0.71257 -0.6796,-1.5835 z m 172.7495,1.14348 c -0.223,-0.58134 0.1092,-3.57025 0.4437,-3.99175 0.1444,-0.1819 0.4429,-0.33073 0.6632,-0.33073 0.3299,0 0.3764,0.29242 0.2629,1.65365 -0.1972,2.36467 -0.9349,3.80204 -1.3698,2.66883 z m -173.8072,-10.3197 c -0.097,-0.097 -0.1764,-0.9999 -0.1764,-2.00642 0,-1.34596 0.087,-1.80111 0.3308,-1.72068 0.2133,0.0705 0.3583,0.78264 0.4084,2.00643 0.071,1.73018 -0.083,2.20053 -0.5628,1.72067 z m 175.2424,-1.76389 c 0,-2.05515 0.093,-2.34217 0.6873,-2.11422 0.6816,0.26153 0.3789,4.0545 -0.3235,4.0545 -0.2756,0 -0.3638,-0.47037 -0.3638,-1.94028 z m -174.3604,-7.33753 c 0,-1.01629 1.3172,-2.89302 2.0305,-2.89302 0.5421,0 0.4145,0.91857 -0.2055,1.47972 -0.306,0.27687 -0.7257,0.83111 -0.9329,1.23163 -0.445,0.86059 -0.8921,0.95164 -0.8921,0.18167 z m 172.9453,-0.31333 c -0.2002,-0.47295 -0.6185,-1.08671 -0.9296,-1.36393 -0.6986,-0.62239 -0.7321,-1.21576 -0.069,-1.21576 0.5017,0 2.4134,2.46436 2.4134,3.11114 0,0.71558 -1.0551,0.31934 -1.4151,-0.53145 z m -165.7713,-3.57188 -0.5575,-0.46302 0.8807,-1.03751 c 1.1896,-1.4014 1.7632,-1.1957 1.7632,0.63233 0,1.2914 -0.023,1.33122 -0.7644,1.33122 -0.4205,0 -1.0153,-0.20836 -1.322,-0.46302 z m 157.4485,-0.76665 c 0.1169,-1.78342 0.7483,-2.09563 1.7849,-0.88266 1.284,1.50242 1.0107,2.11233 -0.9467,2.11233 h -0.9189 z m 1.4294,-7.16703 c -0.2675,-0.26748 -0.1749,-3.51311 0.1157,-4.05611 0.3513,-0.6563 0.967,-0.65794 1.1748,-0.003 0.2351,0.74067 -0.3776,3.92777 -0.7852,4.08416 -0.1909,0.0733 -0.4183,0.0621 -0.5053,-0.0249 z m -158.7861,-0.79757 c -0.084,-0.40018 -0.2644,-1.22504 -0.4009,-1.83302 -0.2719,-1.21023 -0.1176,-1.93729 0.4111,-1.93729 0.5048,0 0.6615,0.63167 0.6615,2.66747 0,1.83936 -0.3847,2.47104 -0.6717,1.10284 z m -0.9158,-11.99444 c 0,-1.80493 0.082,-2.37591 0.3307,-2.29328 0.3839,0.12772 0.6518,1.18812 0.6963,2.75671 0.038,1.3361 -0.167,1.93986 -0.6584,1.93986 -0.288,0 -0.3686,-0.52545 -0.3686,-2.40329 z m 160.6571,0.10942 c 0.051,-1.33013 0.1912,-2.06698 0.408,-2.13871 0.3555,-0.11763 0.4721,2.42286 0.1639,3.57269 -0.3403,1.27017 -0.6457,0.50451 -0.5719,-1.43398 z m -160.6756,-8.4879 c -0.077,-1.93421 -0.028,-3.81172 0.1029,-3.94295 0.086,-0.0865 0.3411,-0.0868 0.5656,-6.4e-4 0.3096,0.1188 0.4083,0.56916 0.4083,1.86313 0,0.93855 -0.072,1.89479 -0.1606,2.12497 -0.217,0.5656 -0.8932,0.53276 -0.9162,-0.0445 z m 160.7954,0 c -0.066,-0.10914 -0.1628,-0.97234 -0.214,-1.91823 -0.075,-1.39368 -0.018,-1.71979 0.3037,-1.71979 0.3092,0 0.4141,0.42408 0.4747,1.91823 0.046,1.13531 -0.029,1.91823 -0.1829,1.91823 -0.1433,0 -0.315,-0.0893 -0.3815,-0.19844 z m -160.2463,-10.16705 c 8e-4,-0.3381 0.1083,-1.03144 0.2389,-1.54076 0.1306,-0.50932 0.3151,-1.27068 0.4101,-1.69192 0.3391,-1.50443 0.6725,-0.3043 0.4723,1.70011 -0.1568,1.57039 -0.2906,1.98759 -0.6597,2.05843 -0.3339,0.0641 -0.4626,-0.0826 -0.4616,-0.52586 z m 159.2007,0.41068 c -0.1032,-0.10315 -0.1876,-1.06068 -0.1876,-2.12783 0,-1.52556 0.083,-1.94028 0.3867,-1.94028 0.42,0 0.8468,1.31953 0.9842,3.04271 0.072,0.89723 0,1.0701 -0.4557,1.13564 -0.297,0.0425 -0.6245,-0.007 -0.7276,-0.11024 z m -1.358,-10.17543 c -1.1043,-3.19836 -1.1776,-3.55238 -0.8124,-3.92354 0.3158,-0.32087 0.4027,-0.28353 0.6163,0.26458 0.5757,1.47758 0.8993,3.4602 0.6117,3.74777 -0.2052,0.20517 -0.3228,0.18003 -0.4156,-0.0888 z m -155.752,-0.17653 c -0.224,-1.81161 0.3838,-4.10589 1.0539,-3.97829 0.6684,0.12727 0.6421,1.06123 -0.075,2.6836 -0.6109,1.38135 -0.9177,1.78722 -0.9786,1.29469 z m 3.0406,-11.24387 c 0.094,-0.47244 0.407,-1.09421 0.6945,-1.38172 0.5206,-0.52059 0.5227,-0.51948 0.5227,0.27094 0,0.84171 -0.6336,1.96975 -1.1064,1.96975 -0.1777,0 -0.2188,-0.31889 -0.1108,-0.85897 z m 149.1691,-0.18865 c -0.5874,-0.79452 -0.7902,-2.12738 -0.3237,-2.12738 0.1404,0 0.362,0.20836 0.4924,0.46302 0.2251,0.43957 0.6157,2.4474 0.4761,2.4474 -0.036,0 -0.3264,-0.35237 -0.6448,-0.78304 z m -4.2387,-8.97764 c -0.461,-0.7114 -0.8382,-1.50593 -0.8382,-1.76563 0,-0.42129 0.067,-0.40916 0.6224,0.11254 0.5705,0.53587 1.4097,2.5907 1.1602,2.84029 -0.058,0.0584 -0.4835,-0.4758 -0.9444,-1.1872 z m -140.8027,0.60337 c 0,-0.50486 1.5789,-3.01352 1.8966,-3.01352 0.3222,0 0.2555,0.32767 -0.1853,0.91046 -0.2136,0.28248 -0.3924,0.6992 -0.3972,0.92604 -0.01,0.41489 -0.8672,1.60308 -1.1581,1.60308 -0.086,0 -0.156,-0.19173 -0.156,-0.42606 z m 5.5562,-8.3408 c 0,-0.40042 2.1056,-3.13939 2.4134,-3.13939 0.4164,0 0.245,0.70042 -0.29,1.18451 -0.2873,0.26003 -0.5896,0.68455 -0.6717,0.94338 -0.1854,0.58398 -1.4517,1.46634 -1.4517,1.0115 z m 129.8676,-0.43017 c -1.0405,-1.13285 -1.8846,-2.45749 -1.69,-2.65211 0.2174,-0.21734 1.9147,1.68994 2.2776,2.55927 0.3752,0.899 0.181,0.92969 -0.5876,0.0928 z m -122.9884,-7.29194 c 0,-0.41136 2.1541,-2.29645 2.6242,-2.29645 0.5613,0 0.2695,0.47892 -0.8383,1.3759 -1.5346,1.24253 -1.7859,1.37209 -1.7859,0.92055 z m 115.2922,-0.80126 c -1.1487,-1.02997 -1.5819,-1.75977 -1.0446,-1.75977 0.2811,0 2.9672,2.45711 2.9647,2.71198 -0.01,0.4672 -0.7489,0.0981 -1.9201,-0.95221 z m -7.2652,-5.58813 c -1.433,-0.79018 -2.4812,-1.61677 -2.2911,-1.80683 0.2116,-0.21164 0.8948,0.0639 1.8172,0.73286 0.4366,0.31661 1.0021,0.65246 1.2568,0.74632 0.2546,0.0939 0.463,0.35298 0.463,0.57583 0,0.22285 -0.03,0.39633 -0.066,0.38552 -0.036,-0.0108 -0.5673,-0.29598 -1.1798,-0.6337 z m -100.3541,0.15629 c 0,-0.12786 0.3486,-0.37687 0.7746,-0.55334 0.4261,-0.17647 0.9803,-0.5481 1.2317,-0.82585 0.2513,-0.27774 0.6951,-0.50499 0.9861,-0.50499 0.5202,0 0.5206,0.009 0.028,0.5534 -0.4732,0.52291 -2.3405,1.56327 -2.8059,1.56327 -0.1182,0 -0.2149,-0.10462 -0.2149,-0.23249 z m 9.3072,-5.23149 c 0.053,-0.26961 0.6795,-0.62962 1.6367,-0.94025 1.5617,-0.50676 2.4584,-0.46428 1.1002,0.0521 -0.4011,0.15251 -1.029,0.51303 -1.3953,0.80116 -0.8117,0.63847 -1.4578,0.68037 -1.3416,0.087 z m 80.9367,-0.42282 c -0.7889,-0.45647 -1.2909,-0.87774 -1.1156,-0.93617 0.1752,-0.0584 0.4635,0.007 0.6405,0.14614 0.177,0.1388 0.7272,0.32936 1.2226,0.42346 0.9368,0.17792 1.6128,0.59459 1.6128,0.9941 0,0.44539 -0.9364,0.19645 -2.3603,-0.62753 z m -9.0168,-3.34969 c -1.2837,-0.18324 -1.8521,-0.43896 -1.8521,-0.83329 0,-0.45288 1.642,-0.25843 2.5485,0.30177 0.8506,0.52576 1.1208,0.81309 0.6926,0.73682 -0.1091,-0.0194 -0.7342,-0.11183 -1.389,-0.2053 z m -61.3834,-0.5531 c 0.681,-0.53263 2.3813,-0.7282 2.3813,-0.27389 0,0.42537 -0.9642,0.80341 -2.0331,0.79718 l -1.0096,-0.006 z m 51.3292,-2.09618 c -1.5271,-0.13566 -1.7293,-0.21947 -1.8043,-0.74809 -0.072,-0.51039 0.036,-0.59531 0.7577,-0.59531 0.8482,0 2.8987,0.97029 2.8987,1.37164 0,0.11872 -0.03,0.19531 -0.066,0.17019 -0.036,-0.0251 -0.8401,-0.11441 -1.7859,-0.19843 z m -41.0104,-0.54965 c 1.1029,-0.60379 2.3812,-0.69138 2.3812,-0.16315 0,0.44116 -0.8183,0.68772 -2.2489,0.67761 l -1.0583,-0.007 z m 8.8564,-1.06988 c -0.282,-0.45632 0.3028,-0.7185 2.0567,-0.92206 1.6712,-0.19396 1.9397,-0.11077 1.6956,0.52532 -0.112,0.2919 -0.53,0.40829 -1.4663,0.40829 -0.7202,0 -1.4858,0.0676 -1.7013,0.15033 -0.2155,0.0827 -0.4786,0.01 -0.5847,-0.16188 z m 20.6957,0.0908 c -0.2742,-0.0711 -0.4406,-0.3119 -0.3901,-0.56462 0.07,-0.35032 0.3972,-0.43941 1.5957,-0.43438 1.6166,0.007 2.5071,0.46939 1.7838,0.92667 -0.4024,0.25444 -2.1258,0.29614 -2.9894,0.0723 z m -11.207,-0.49395 c -0.2769,-0.72167 0.3027,-0.93535 2.318,-0.85452 1.802,0.0723 1.9655,0.1262 2.0433,0.67386 0.082,0.57533 0.013,0.59532 -2.0588,0.59532 -1.702,0 -2.1761,-0.0854 -2.3025,-0.41466 z"
         id="path1" /></g></g></svg>
